<svg xmlns="http://www.w3.org/2000/svg" xmlns:xlink="http://www.w3.org/1999/xlink" width="800" height="1920" preserveAspectRatio="xMidYMid meet" version="1.0" viewBox="0 0 600 1440" zoomAndPan="magnify"><defs><filter id="b134598822" width="100%" height="100%" x="0%" y="0%"><feColorMatrix color-interpolation-filters="sRGB" values="0 0 0 0 1 0 0 0 0 1 0 0 0 0 1 0 0 0 1 0"/></filter><clipPath id="ea25ac61d3"><path d="M 0 186.667969 L 188.570312 186.667969 L 188.570312 375.238281 L 0 375.238281 Z M 0 186.667969" clip-rule="nonzero"/></clipPath><clipPath id="8707a5e6f4"><path d="M 334.738281 0 L 600 0 L 600 305.167969 L 334.738281 305.167969 Z M 334.738281 0" clip-rule="nonzero"/></clipPath><clipPath id="de94aad9f8"><path d="M 495 -15.359375 C 406.488281 -15.359375 334.738281 56.394531 334.738281 144.902344 C 334.738281 233.414062 406.488281 305.167969 495 305.167969 C 583.511719 305.167969 655.261719 233.414062 655.261719 144.902344 C 655.261719 56.394531 583.511719 -15.359375 495 -15.359375 Z M 495 -15.359375" clip-rule="nonzero"/></clipPath><clipPath id="449981c3c8"><path d="M 300 556.964844 L 600 556.964844 L 600 856.964844 L 300 856.964844 Z M 300 556.964844" clip-rule="nonzero"/></clipPath><clipPath id="ca6bc20e63"><path d="M 450 556.964844 L 600 706.964844 L 450 856.964844 L 300 706.964844 Z M 450 556.964844" clip-rule="nonzero"/></clipPath><mask id="bf09d27a8f"><g filter="url(#b134598822)"><rect width="720" height="1728" x="-60" y="-144" fill="#000" fill-opacity=".55"/></g></mask><clipPath id="a91fa38e9b"><path d="M 0.132812 0.734375 L 58.648438 0.734375 L 58.648438 721.667969 L 0.132812 721.667969 Z M 0.132812 0.734375" clip-rule="nonzero"/></clipPath><clipPath id="d213e20e61"><rect width="59" height="722" x="0" y="0"/></clipPath><mask id="d59ab0b611"><g filter="url(#b134598822)"><rect width="720" height="1728" x="-60" y="-144" fill="#000" fill-opacity=".54"/></g></mask><clipPath id="3429ecb156"><path d="M 0.28125 0.238281 L 265 0.238281 L 265 19 L 0.28125 19 Z M 0.28125 0.238281" clip-rule="nonzero"/></clipPath><clipPath id="fecfdad321"><path d="M 0.28125 37 L 265 37 L 265 56 L 0.28125 56 Z M 0.28125 37" clip-rule="nonzero"/></clipPath><clipPath id="1e580aed26"><path d="M 0.28125 74 L 265 74 L 265 93 L 0.28125 93 Z M 0.28125 74" clip-rule="nonzero"/></clipPath><clipPath id="068d29606f"><path d="M 0.28125 111 L 265 111 L 265 130 L 0.28125 130 Z M 0.28125 111" clip-rule="nonzero"/></clipPath><clipPath id="66e6c523e6"><path d="M 0.28125 148 L 265 148 L 265 166.738281 L 0.28125 166.738281 Z M 0.28125 148" clip-rule="nonzero"/></clipPath><clipPath id="633d68dbe4"><rect width="265" height="167" x="0" y="0"/></clipPath><mask id="664c0fd3c9"><g filter="url(#b134598822)"><rect width="720" height="1728" x="-60" y="-144" fill="#000" fill-opacity=".54"/></g></mask><clipPath id="9597f4bf23"><path d="M 0 0.449219 L 334.734375 0.449219 L 334.734375 624.449219 L 0 624.449219 Z M 0 0.449219" clip-rule="nonzero"/></clipPath><clipPath id="f751e29f90"><rect width="336" height="626" x="0" y="0"/></clipPath><mask id="dd496613e9"><g filter="url(#b134598822)"><rect width="720" height="1728" x="-60" y="-144" fill="#000" fill-opacity=".54"/></g></mask><clipPath id="3895154ace"><path d="M 1 0.953125 L 373 0.953125 L 373 224 L 1 224 Z M 1 0.953125" clip-rule="nonzero"/></clipPath><clipPath id="1b6e18cb8b"><rect width="373" height="224" x="0" y="0"/></clipPath><clipPath id="87b825f690"><path d="M 0 1038.394531 L 424.167969 1038.394531 L 424.167969 1440 L 0 1440 Z M 0 1038.394531" clip-rule="nonzero"/></clipPath><clipPath id="87917fbd9d"><path d="M 178.886719 1038.394531 C 43.421875 1038.394531 -66.394531 1148.210938 -66.394531 1283.675781 C -66.394531 1419.140625 43.421875 1528.957031 178.886719 1528.957031 C 314.351562 1528.957031 424.167969 1419.140625 424.167969 1283.675781 C 424.167969 1148.210938 314.351562 1038.394531 178.886719 1038.394531 Z M 178.886719 1038.394531" clip-rule="nonzero"/></clipPath><mask id="a828c35d14"><g filter="url(#b134598822)"><rect width="720" height="1728" x="-60" y="-144" fill="#000" fill-opacity=".55"/></g></mask><clipPath id="97767f7f83"><path d="M 1 0.964844 L 91 0.964844 L 91 90.964844 L 1 90.964844 Z M 1 0.964844" clip-rule="nonzero"/></clipPath><clipPath id="88ead9e261"><rect width="92" height="92" x="0" y="0"/></clipPath><mask id="4e3c36e3e1"><g filter="url(#b134598822)"><rect width="720" height="1728" x="-60" y="-144" fill="#000" fill-opacity=".55"/></g></mask><clipPath id="dcb953bba5"><path d="M 0.167969 0.179688 L 96.714844 0.179688 L 96.714844 96.726562 L 0.167969 96.726562 Z M 0.167969 0.179688" clip-rule="nonzero"/></clipPath><clipPath id="e51a4532fc"><path d="M 48.441406 0.179688 C 21.78125 0.179688 0.167969 21.792969 0.167969 48.453125 C 0.167969 75.113281 21.78125 96.726562 48.441406 96.726562 C 75.101562 96.726562 96.714844 75.113281 96.714844 48.453125 C 96.714844 21.792969 75.101562 0.179688 48.441406 0.179688 Z M 48.441406 0.179688" clip-rule="nonzero"/></clipPath><clipPath id="5ada38f189"><rect width="97" height="97" x="0" y="0"/></clipPath><clipPath id="31db99ff86"><path d="M 424.167969 74.070312 L 565.832031 74.070312 L 565.832031 215.734375 L 424.167969 215.734375 Z M 424.167969 74.070312" clip-rule="nonzero"/></clipPath><clipPath id="ed042bcec2"><path d="M 495 74.070312 C 455.878906 74.070312 424.167969 105.785156 424.167969 144.902344 C 424.167969 184.023438 455.878906 215.734375 495 215.734375 C 534.121094 215.734375 565.832031 184.023438 565.832031 144.902344 C 565.832031 105.785156 534.121094 74.070312 495 74.070312 Z M 495 74.070312" clip-rule="nonzero"/></clipPath></defs><rect width="720" height="1728" x="-60" y="-144" fill="#fff" fill-opacity="1"/><rect width="720" height="1728" x="-60" y="-144" fill="#fdde72" fill-opacity="1"/><g clip-path="url(#ea25ac61d3)"><path fill="#fdc672" fill-opacity="1" fill-rule="nonzero" d="M 0 186.667969 L 188.570312 186.667969 L 188.570312 375.238281 L 0 375.238281 Z M 0 186.667969"/></g><g clip-path="url(#8707a5e6f4)"><g clip-path="url(#de94aad9f8)"><path fill="#ffc149" fill-opacity="1" fill-rule="nonzero" d="M 334.738281 -15.359375 L 655.261719 -15.359375 L 655.261719 305.167969 L 334.738281 305.167969 Z M 334.738281 -15.359375"/></g></g><g clip-path="url(#449981c3c8)"><g clip-path="url(#ca6bc20e63)"><path fill="#ffc149" fill-opacity="1" fill-rule="nonzero" d="M 300 556.964844 L 600 556.964844 L 600 856.964844 L 300 856.964844 Z M 300 556.964844"/></g></g><g mask="url(#bf09d27a8f)"><g><g clip-path="url(#d213e20e61)" transform="matrix(1, 0, 0, 1, 66, 215)"><g clip-path="url(#a91fa38e9b)"><path fill="#cf9d3d" fill-opacity="1" fill-rule="nonzero" d="M 0.132812 0.734375 L 58.648438 0.734375 L 58.648438 721.675781 L 0.132812 721.675781 Z M 0.132812 0.734375"/></g></g></g></g><g mask="url(#d59ab0b611)"><g><g clip-path="url(#633d68dbe4)" transform="matrix(1, 0, 0, 1, 335, 805)"><g clip-path="url(#3429ecb156)"><path fill="#a6a6a6" fill-opacity="1" fill-rule="nonzero" d="M 0.3125 0.238281 L 444.136719 0.238281 L 444.136719 18.65625 L 0.3125 18.65625 Z M 0.3125 0.238281"/></g><g clip-path="url(#fecfdad321)"><path fill="#a6a6a6" fill-opacity="1" fill-rule="nonzero" d="M 0.3125 37.253906 L 444.136719 37.253906 L 444.136719 55.671875 L 0.3125 55.671875 Z M 0.3125 37.253906"/></g><g clip-path="url(#1e580aed26)"><path fill="#a6a6a6" fill-opacity="1" fill-rule="nonzero" d="M 0.3125 74.363281 L 444.136719 74.363281 L 444.136719 92.78125 L 0.3125 92.78125 Z M 0.3125 74.363281"/></g><g clip-path="url(#068d29606f)"><path fill="#a6a6a6" fill-opacity="1" fill-rule="nonzero" d="M 0.3125 111.472656 L 444.136719 111.472656 L 444.136719 129.886719 L 0.3125 129.886719 Z M 0.3125 111.472656"/></g><g clip-path="url(#66e6c523e6)"><path fill="#a6a6a6" fill-opacity="1" fill-rule="nonzero" d="M 0.3125 148.488281 L 444.136719 148.488281 L 444.136719 166.902344 L 0.3125 166.902344 Z M 0.3125 148.488281"/></g></g></g></g><g mask="url(#664c0fd3c9)"><g><g clip-path="url(#f751e29f90)" transform="matrix(1, 0, 0, 1, 0, 449)"><g clip-path="url(#9597f4bf23)"><path fill="#a6a6a6" fill-opacity="1" fill-rule="nonzero" d="M 22.765625 624.496094 C -149.292969 624.496094 -289.265625 484.519531 -289.265625 312.480469 C -289.265625 140.441406 -149.292969 0.449219 22.765625 0.449219 C 194.820312 0.449219 334.78125 140.425781 334.78125 312.480469 C 334.78125 484.535156 194.804688 624.496094 22.765625 624.496094 Z M 22.765625 6.574219 C -145.90625 6.574219 -283.140625 143.808594 -283.140625 312.480469 C -283.140625 481.152344 -145.90625 618.371094 22.765625 618.371094 C 191.433594 618.371094 328.652344 481.152344 328.652344 312.480469 C 328.652344 143.808594 191.433594 6.574219 22.765625 6.574219 Z M 22.765625 561.453125 C -114.53125 561.453125 -226.207031 449.761719 -226.207031 312.480469 C -226.207031 175.199219 -114.53125 63.507812 22.765625 63.507812 C 160.058594 63.507812 271.734375 175.1875 271.734375 312.480469 C 271.734375 449.777344 160.042969 561.453125 22.765625 561.453125 Z M 22.765625 69.632812 C -111.148438 69.632812 -220.082031 178.570312 -220.082031 312.480469 C -220.082031 446.390625 -111.148438 555.328125 22.765625 555.328125 C 156.675781 555.328125 265.609375 446.375 265.609375 312.480469 C 265.609375 178.585938 156.660156 69.632812 22.765625 69.632812 Z M 22.765625 498.394531 C 19.722656 498.394531 16.679688 498.320312 13.640625 498.171875 C 10.601562 498.023438 7.566406 497.800781 4.539062 497.5 C 1.511719 497.203125 -1.507812 496.832031 -4.519531 496.382812 C -7.527344 495.9375 -10.527344 495.417969 -13.511719 494.824219 C -16.496094 494.230469 -19.464844 493.566406 -22.414062 492.824219 C -25.367188 492.085938 -28.296875 491.277344 -31.210938 490.390625 C -34.121094 489.507812 -37.011719 488.554688 -39.875 487.53125 C -42.742188 486.503906 -45.578125 485.410156 -48.390625 484.246094 C -51.203125 483.082031 -53.984375 481.851562 -56.734375 480.546875 C -59.484375 479.246094 -62.203125 477.878906 -64.886719 476.445312 C -67.570312 475.011719 -70.21875 473.511719 -72.828125 471.949219 C -75.4375 470.382812 -78.007812 468.757812 -80.539062 467.066406 C -83.070312 465.375 -85.554688 463.625 -88 461.8125 C -90.445312 460 -92.84375 458.128906 -95.195312 456.199219 C -97.546875 454.265625 -99.851562 452.28125 -102.105469 450.238281 C -104.359375 448.195312 -106.5625 446.097656 -108.714844 443.945312 C -110.867188 441.792969 -112.964844 439.589844 -115.007812 437.335938 C -117.050781 435.082031 -119.039062 432.777344 -120.96875 430.425781 C -122.902344 428.074219 -124.773438 425.675781 -126.585938 423.230469 C -128.398438 420.785156 -130.148438 418.300781 -131.839844 415.769531 C -133.53125 413.238281 -135.160156 410.667969 -136.722656 408.058594 C -138.289062 405.449219 -139.789062 402.804688 -141.222656 400.121094 C -142.65625 397.4375 -144.023438 394.71875 -145.324219 391.96875 C -146.625 389.21875 -147.859375 386.4375 -149.023438 383.625 C -150.1875 380.8125 -151.285156 377.976562 -152.308594 375.109375 C -153.335938 372.246094 -154.289062 369.355469 -155.171875 366.445312 C -156.054688 363.53125 -156.867188 360.601562 -157.605469 357.648438 C -158.347656 354.699219 -159.011719 351.730469 -159.605469 348.746094 C -160.199219 345.761719 -160.71875 342.761719 -161.167969 339.753906 C -161.613281 336.742188 -161.984375 333.722656 -162.285156 330.695312 C -162.582031 327.667969 -162.808594 324.632812 -162.957031 321.59375 C -163.105469 318.554688 -163.179688 315.511719 -163.179688 312.46875 C -163.179688 309.425781 -163.105469 306.386719 -162.957031 303.347656 C -162.808594 300.308594 -162.582031 297.273438 -162.285156 294.246094 C -161.988281 291.21875 -161.613281 288.199219 -161.167969 285.1875 C -160.722656 282.179688 -160.203125 279.179688 -159.609375 276.195312 C -159.015625 273.210938 -158.347656 270.242188 -157.609375 267.292969 C -156.871094 264.339844 -156.058594 261.410156 -155.175781 258.496094 C -154.292969 255.585938 -153.335938 252.695312 -152.3125 249.832031 C -151.289062 246.964844 -150.191406 244.128906 -149.027344 241.316406 C -147.863281 238.503906 -146.632812 235.722656 -145.332031 232.972656 C -144.027344 230.222656 -142.660156 227.503906 -141.226562 224.820312 C -139.792969 222.136719 -138.292969 219.492188 -136.730469 216.878906 C -135.164062 214.269531 -133.535156 211.699219 -131.847656 209.171875 C -130.15625 206.640625 -128.402344 204.152344 -126.589844 201.707031 C -124.777344 199.265625 -122.90625 196.867188 -120.976562 194.515625 C -119.046875 192.160156 -117.058594 189.859375 -115.015625 187.605469 C -112.972656 185.347656 -110.875 183.144531 -108.722656 180.992188 C -106.570312 178.84375 -104.367188 176.746094 -102.113281 174.699219 C -99.859375 172.65625 -97.554688 170.671875 -95.203125 168.738281 C -92.851562 166.808594 -90.453125 164.9375 -88.007812 163.125 C -85.5625 161.3125 -83.078125 159.5625 -80.546875 157.871094 C -78.015625 156.179688 -75.445312 154.550781 -72.835938 152.988281 C -70.226562 151.421875 -67.578125 149.925781 -64.894531 148.488281 C -62.210938 147.054688 -59.496094 145.6875 -56.746094 144.386719 C -53.992188 143.085938 -51.210938 141.851562 -48.402344 140.6875 C -45.589844 139.523438 -42.75 138.429688 -39.886719 137.402344 C -37.019531 136.378906 -34.132812 135.425781 -31.21875 134.542969 C -28.308594 133.660156 -25.375 132.847656 -22.425781 132.109375 C -19.472656 131.367188 -16.503906 130.703125 -13.519531 130.109375 C -10.535156 129.515625 -7.539062 128.996094 -4.527344 128.546875 C -1.519531 128.101562 1.5 127.730469 4.527344 127.429688 C 7.558594 127.132812 10.589844 126.910156 13.628906 126.761719 C 16.667969 126.609375 19.710938 126.535156 22.753906 126.535156 C 25.796875 126.535156 28.839844 126.613281 31.878906 126.761719 C 34.917969 126.910156 37.949219 127.132812 40.980469 127.433594 C 44.007812 127.730469 47.027344 128.101562 50.035156 128.550781 C 53.046875 128.996094 56.042969 129.515625 59.027344 130.109375 C 62.011719 130.703125 64.980469 131.371094 67.933594 132.109375 C 70.882812 132.851562 73.816406 133.660156 76.726562 134.542969 C 79.640625 135.429688 82.527344 136.382812 85.394531 137.40625 C 88.257812 138.433594 91.097656 139.527344 93.90625 140.691406 C 96.71875 141.855469 99.5 143.089844 102.25 144.390625 C 105 145.691406 107.71875 147.058594 110.402344 148.496094 C 113.085938 149.929688 115.734375 151.429688 118.34375 152.992188 C 120.953125 154.558594 123.523438 156.1875 126.054688 157.875 C 128.582031 159.566406 131.070312 161.320312 133.515625 163.132812 C 135.957031 164.945312 138.355469 166.816406 140.707031 168.746094 C 143.058594 170.675781 145.363281 172.664062 147.617188 174.707031 C 149.871094 176.75 152.074219 178.847656 154.226562 181 C 156.378906 183.152344 158.476562 185.355469 160.519531 187.609375 C 162.5625 189.867188 164.550781 192.167969 166.480469 194.523438 C 168.410156 196.875 170.28125 199.273438 172.09375 201.71875 C 173.90625 204.160156 175.660156 206.648438 177.347656 209.179688 C 179.039062 211.707031 180.667969 214.277344 182.230469 216.890625 C 183.796875 219.5 185.296875 222.144531 186.730469 224.828125 C 188.164062 227.515625 189.53125 230.230469 190.832031 232.980469 C 192.132812 235.734375 193.367188 238.515625 194.53125 241.324219 C 195.695312 244.136719 196.789062 246.976562 197.8125 249.839844 C 198.839844 252.707031 199.792969 255.59375 200.675781 258.507812 C 201.558594 261.417969 202.371094 264.351562 203.109375 267.300781 C 203.847656 270.253906 204.515625 273.222656 205.109375 276.207031 C 205.703125 279.191406 206.222656 282.1875 206.667969 285.199219 C 207.113281 288.207031 207.484375 291.226562 207.785156 294.257812 C 208.082031 297.285156 208.304688 300.316406 208.453125 303.359375 C 208.605469 306.398438 208.679688 309.4375 208.675781 312.480469 C 208.675781 315.523438 208.597656 318.5625 208.445312 321.601562 C 208.292969 324.636719 208.0625 327.671875 207.761719 330.695312 C 207.460938 333.722656 207.085938 336.742188 206.636719 339.75 C 206.1875 342.757812 205.664062 345.753906 205.070312 348.734375 C 204.472656 351.71875 203.804688 354.683594 203.0625 357.636719 C 202.324219 360.585938 201.507812 363.515625 200.625 366.425781 C 199.738281 369.335938 198.785156 372.222656 197.757812 375.085938 C 196.730469 377.949219 195.632812 380.785156 194.46875 383.59375 C 193.304688 386.402344 192.070312 389.183594 190.765625 391.929688 C 189.464844 394.679688 188.097656 397.394531 186.664062 400.078125 C 185.226562 402.757812 183.726562 405.40625 182.164062 408.011719 C 180.597656 410.621094 178.96875 413.191406 177.28125 415.71875 C 175.589844 418.246094 173.835938 420.734375 172.023438 423.175781 C 170.210938 425.617188 168.339844 428.015625 166.410156 430.367188 C 164.480469 432.714844 162.496094 435.019531 160.453125 437.273438 C 158.410156 439.527344 156.3125 441.726562 154.164062 443.878906 C 152.011719 446.03125 149.808594 448.125 147.554688 450.167969 C 145.300781 452.210938 143 454.199219 140.648438 456.128906 C 138.296875 458.058594 135.902344 459.929688 133.457031 461.742188 C 131.015625 463.554688 128.53125 465.304688 126 466.996094 C 123.472656 468.6875 120.90625 470.316406 118.296875 471.878906 C 115.6875 473.445312 113.042969 474.945312 110.359375 476.378906 C 107.679688 477.8125 104.964844 479.183594 102.214844 480.484375 C 99.464844 481.785156 96.6875 483.019531 93.875 484.1875 C 91.066406 485.351562 88.230469 486.449219 85.367188 487.472656 C 82.503906 488.5 79.617188 489.457031 76.707031 490.339844 C 73.796875 491.226562 70.867188 492.039062 67.917969 492.78125 C 64.96875 493.523438 62 494.191406 59.019531 494.785156 C 56.035156 495.382812 53.039062 495.90625 50.03125 496.355469 C 47.023438 496.804688 44.007812 497.179688 40.980469 497.480469 C 37.953125 497.78125 34.921875 498.007812 31.882812 498.160156 C 28.84375 498.3125 25.804688 498.390625 22.765625 498.394531 Z M 22.765625 132.675781 C 19.820312 132.675781 16.878906 132.75 13.941406 132.894531 C 11.003906 133.035156 8.066406 133.253906 5.140625 133.542969 C 2.210938 133.828125 -0.707031 134.191406 -3.621094 134.621094 C -6.53125 135.050781 -9.429688 135.554688 -12.316406 136.128906 C -15.199219 136.703125 -18.070312 137.347656 -20.925781 138.0625 C -23.78125 138.777344 -26.617188 139.5625 -29.433594 140.414062 C -32.246094 141.269531 -35.042969 142.191406 -37.8125 143.183594 C -40.582031 144.175781 -43.328125 145.234375 -46.046875 146.359375 C -48.765625 147.484375 -51.453125 148.675781 -54.113281 149.933594 C -56.773438 151.191406 -59.402344 152.515625 -62 153.902344 C -64.59375 155.289062 -67.152344 156.738281 -69.675781 158.25 C -72.203125 159.765625 -74.6875 161.335938 -77.132812 162.972656 C -79.582031 164.605469 -81.984375 166.300781 -84.351562 168.054688 C -86.714844 169.804688 -89.03125 171.617188 -91.308594 173.480469 C -93.582031 175.347656 -95.808594 177.269531 -97.992188 179.246094 C -100.171875 181.222656 -102.300781 183.25 -104.382812 185.332031 C -106.464844 187.410156 -108.492188 189.542969 -110.46875 191.722656 C -112.445312 193.902344 -114.367188 196.128906 -116.234375 198.40625 C -118.101562 200.679688 -119.910156 203 -121.664062 205.363281 C -123.417969 207.726562 -125.109375 210.128906 -126.746094 212.578125 C -128.382812 215.023438 -129.957031 217.507812 -131.46875 220.03125 C -132.980469 222.558594 -134.429688 225.117188 -135.820312 227.710938 C -137.207031 230.308594 -138.527344 232.933594 -139.789062 235.59375 C -141.046875 238.253906 -142.238281 240.945312 -143.363281 243.664062 C -144.492188 246.382812 -145.550781 249.125 -146.539062 251.894531 C -147.53125 254.667969 -148.457031 257.460938 -149.308594 260.277344 C -150.164062 263.09375 -150.949219 265.925781 -151.664062 268.78125 C -152.378906 271.636719 -153.023438 274.507812 -153.597656 277.390625 C -154.171875 280.277344 -154.675781 283.175781 -155.109375 286.085938 C -155.539062 289 -155.898438 291.917969 -156.1875 294.847656 C -156.476562 297.773438 -156.695312 300.707031 -156.839844 303.648438 C -156.984375 306.585938 -157.054688 309.527344 -157.054688 312.472656 C -157.054688 315.414062 -156.984375 318.355469 -156.839844 321.292969 C -156.695312 324.234375 -156.480469 327.167969 -156.191406 330.09375 C -155.902344 333.023438 -155.542969 335.941406 -155.109375 338.855469 C -154.679688 341.765625 -154.175781 344.664062 -153.601562 347.550781 C -153.027344 350.4375 -152.382812 353.304688 -151.667969 356.160156 C -150.953125 359.015625 -150.167969 361.851562 -149.316406 364.667969 C -148.460938 367.480469 -147.539062 370.277344 -146.546875 373.046875 C -145.554688 375.816406 -144.496094 378.5625 -143.371094 381.28125 C -142.246094 384 -141.054688 386.6875 -139.796875 389.347656 C -138.539062 392.007812 -137.214844 394.636719 -135.828125 397.230469 C -134.441406 399.828125 -132.992188 402.386719 -131.480469 404.910156 C -129.964844 407.433594 -128.390625 409.921875 -126.757812 412.367188 C -125.121094 414.816406 -123.429688 417.21875 -121.675781 419.582031 C -119.921875 421.945312 -118.113281 424.265625 -116.246094 426.542969 C -114.378906 428.816406 -112.457031 431.042969 -110.484375 433.222656 C -108.507812 435.40625 -106.476562 437.535156 -104.398438 439.617188 C -102.316406 441.695312 -100.1875 443.726562 -98.003906 445.703125 C -95.824219 447.679688 -93.597656 449.597656 -91.324219 451.464844 C -89.046875 453.332031 -86.730469 455.144531 -84.367188 456.894531 C -82.003906 458.648438 -79.597656 460.34375 -77.152344 461.976562 C -74.703125 463.613281 -72.21875 465.1875 -69.695312 466.699219 C -67.171875 468.214844 -64.613281 469.664062 -62.015625 471.050781 C -59.421875 472.4375 -56.792969 473.761719 -54.132812 475.019531 C -51.472656 476.277344 -48.785156 477.46875 -46.066406 478.59375 C -43.347656 479.722656 -40.601562 480.78125 -37.832031 481.773438 C -35.0625 482.761719 -32.265625 483.6875 -29.453125 484.539062 C -26.636719 485.394531 -23.800781 486.179688 -20.945312 486.894531 C -18.089844 487.609375 -15.222656 488.253906 -12.335938 488.828125 C -9.449219 489.402344 -6.550781 489.90625 -3.640625 490.335938 C -0.730469 490.769531 2.191406 491.128906 5.121094 491.417969 C 8.046875 491.707031 10.980469 491.921875 13.921875 492.066406 C 16.859375 492.210938 19.800781 492.285156 22.742188 492.285156 C 25.6875 492.285156 28.628906 492.210938 31.566406 492.070312 C 34.503906 491.925781 37.4375 491.707031 40.367188 491.417969 C 43.296875 491.132812 46.214844 490.769531 49.125 490.339844 C 52.039062 489.90625 54.9375 489.40625 57.820312 488.832031 C 60.707031 488.257812 63.578125 487.613281 66.433594 486.898438 C 69.289062 486.183594 72.121094 485.398438 74.9375 484.542969 C 77.753906 483.691406 80.546875 482.765625 83.320312 481.777344 C 86.089844 480.785156 88.835938 479.726562 91.554688 478.597656 C 94.273438 477.472656 96.960938 476.28125 99.621094 475.023438 C 102.28125 473.765625 104.910156 472.441406 107.503906 471.054688 C 110.101562 469.667969 112.660156 468.21875 115.183594 466.707031 C 117.707031 465.191406 120.191406 463.617188 122.640625 461.984375 C 125.085938 460.347656 127.492188 458.65625 129.855469 456.902344 C 132.21875 455.148438 134.539062 453.339844 136.8125 451.472656 C 139.085938 449.605469 141.316406 447.683594 143.496094 445.707031 C 145.675781 443.734375 147.804688 441.703125 149.886719 439.625 C 151.96875 437.542969 153.996094 435.410156 155.972656 433.230469 C 157.949219 431.050781 159.871094 428.824219 161.738281 426.550781 C 163.605469 424.273438 165.414062 421.957031 167.167969 419.589844 C 168.921875 417.226562 170.613281 414.824219 172.25 412.375 C 173.882812 409.929688 175.457031 407.445312 176.96875 404.921875 C 178.484375 402.394531 179.933594 399.835938 181.320312 397.242188 C 182.707031 394.644531 184.03125 392.019531 185.289062 389.359375 C 186.546875 386.699219 187.738281 384.007812 188.867188 381.289062 C 189.992188 378.570312 191.050781 375.828125 192.042969 373.054688 C 193.03125 370.285156 193.957031 367.492188 194.808594 364.675781 C 195.664062 361.859375 196.449219 359.023438 197.164062 356.171875 C 197.878906 353.316406 198.523438 350.445312 199.097656 347.558594 C 199.671875 344.671875 200.175781 341.773438 200.605469 338.863281 C 201.039062 335.953125 201.398438 333.035156 201.6875 330.105469 C 201.976562 327.175781 202.191406 324.242188 202.335938 321.304688 C 202.480469 318.363281 202.550781 315.421875 202.550781 312.480469 C 202.550781 309.539062 202.472656 306.601562 202.328125 303.660156 C 202.179688 300.722656 201.960938 297.792969 201.667969 294.863281 C 201.378906 291.9375 201.015625 289.019531 200.582031 286.109375 C 200.148438 283.199219 199.640625 280.304688 199.066406 277.417969 C 198.488281 274.535156 197.84375 271.664062 197.125 268.8125 C 196.410156 265.960938 195.621094 263.125 194.765625 260.3125 C 193.910156 257.496094 192.988281 254.707031 191.992188 251.9375 C 191 249.167969 189.941406 246.425781 188.8125 243.707031 C 187.6875 240.992188 186.492188 238.300781 185.234375 235.644531 C 183.976562 232.984375 182.652344 230.359375 181.265625 227.765625 C 179.878906 225.171875 178.425781 222.613281 176.914062 220.089844 C 175.402344 217.570312 173.828125 215.085938 172.191406 212.640625 C 170.558594 210.195312 168.863281 207.789062 167.109375 205.425781 C 165.359375 203.066406 163.546875 200.746094 161.683594 198.472656 C 159.816406 196.199219 157.894531 193.972656 155.917969 191.792969 C 153.945312 189.613281 151.917969 187.484375 149.835938 185.402344 C 147.757812 183.324219 145.625 181.296875 143.449219 179.320312 C 141.269531 177.34375 139.042969 175.421875 136.769531 173.558594 C 134.496094 171.691406 132.175781 169.878906 129.816406 168.128906 C 127.453125 166.375 125.046875 164.679688 122.601562 163.046875 C 120.15625 161.410156 117.675781 159.835938 115.152344 158.324219 C 112.628906 156.808594 110.070312 155.359375 107.476562 153.972656 C 104.882812 152.582031 102.257812 151.261719 99.597656 150 C 96.941406 148.742188 94.253906 147.546875 91.535156 146.421875 C 88.820312 145.292969 86.078125 144.234375 83.308594 143.242188 C 80.539062 142.25 77.746094 141.324219 74.933594 140.46875 C 72.117188 139.613281 69.285156 138.824219 66.433594 138.109375 C 63.578125 137.390625 60.710938 136.742188 57.824219 136.167969 C 54.941406 135.589844 52.042969 135.085938 49.136719 134.652344 C 46.226562 134.214844 43.308594 133.855469 40.378906 133.5625 C 37.453125 133.269531 34.519531 133.050781 31.582031 132.902344 C 28.644531 132.757812 25.707031 132.679688 22.765625 132.675781 Z M 22.765625 435.335938 C 20.753906 435.335938 18.742188 435.289062 16.734375 435.1875 C 14.726562 435.089844 12.722656 434.941406 10.71875 434.746094 C 8.71875 434.550781 6.722656 434.304688 4.734375 434.007812 C 2.746094 433.714844 0.765625 433.371094 -1.207031 432.976562 C -3.179688 432.585938 -5.140625 432.144531 -7.09375 431.65625 C -9.042969 431.167969 -10.980469 430.632812 -12.90625 430.050781 C -14.832031 429.464844 -16.738281 428.835938 -18.632812 428.15625 C -20.527344 427.480469 -22.402344 426.757812 -24.261719 425.988281 C -26.117188 425.21875 -27.957031 424.40625 -29.773438 423.542969 C -31.59375 422.683594 -33.386719 421.78125 -35.160156 420.832031 C -36.933594 419.886719 -38.683594 418.894531 -40.410156 417.863281 C -42.132812 416.828125 -43.832031 415.753906 -45.503906 414.636719 C -47.175781 413.519531 -48.820312 412.359375 -50.4375 411.164062 C -52.050781 409.964844 -53.636719 408.726562 -55.191406 407.453125 C -56.746094 406.175781 -58.269531 404.863281 -59.757812 403.515625 C -61.25 402.164062 -62.703125 400.777344 -64.125 399.355469 C -65.546875 397.933594 -66.933594 396.476562 -68.285156 394.988281 C -69.636719 393.496094 -70.949219 391.976562 -72.226562 390.421875 C -73.5 388.867188 -74.738281 387.28125 -75.9375 385.667969 C -77.132812 384.050781 -78.292969 382.410156 -79.410156 380.734375 C -80.527344 379.0625 -81.601562 377.367188 -82.636719 375.640625 C -83.671875 373.917969 -84.660156 372.167969 -85.609375 370.394531 C -86.558594 368.621094 -87.460938 366.824219 -88.320312 365.007812 C -89.179688 363.1875 -89.996094 361.351562 -90.765625 359.492188 C -91.535156 357.636719 -92.257812 355.761719 -92.9375 353.867188 C -93.613281 351.972656 -94.246094 350.0625 -94.828125 348.140625 C -95.414062 346.214844 -95.949219 344.277344 -96.4375 342.328125 C -96.925781 340.375 -97.367188 338.414062 -97.757812 336.441406 C -98.152344 334.46875 -98.496094 332.488281 -98.792969 330.5 C -99.085938 328.511719 -99.332031 326.515625 -99.53125 324.515625 C -99.726562 322.511719 -99.875 320.507812 -99.972656 318.5 C -100.074219 316.492188 -100.121094 314.480469 -100.121094 312.472656 C -100.121094 310.460938 -100.074219 308.449219 -99.972656 306.441406 C -99.875 304.433594 -99.726562 302.429688 -99.53125 300.425781 C -99.332031 298.425781 -99.085938 296.429688 -98.792969 294.441406 C -98.496094 292.453125 -98.152344 290.472656 -97.761719 288.5 C -97.371094 286.527344 -96.929688 284.566406 -96.441406 282.613281 C -95.953125 280.664062 -95.414062 278.726562 -94.832031 276.800781 C -94.25 274.875 -93.617188 272.96875 -92.941406 271.074219 C -92.261719 269.179688 -91.539062 267.304688 -90.769531 265.449219 C -90 263.589844 -89.1875 261.75 -88.324219 259.933594 C -87.464844 258.117188 -86.5625 256.320312 -85.613281 254.546875 C -84.667969 252.773438 -83.675781 251.023438 -82.640625 249.300781 C -81.609375 247.574219 -80.53125 245.875 -79.414062 244.203125 C -78.296875 242.53125 -77.140625 240.886719 -75.941406 239.273438 C -74.746094 237.65625 -73.507812 236.074219 -72.230469 234.519531 C -70.957031 232.964844 -69.644531 231.441406 -68.292969 229.949219 C -66.941406 228.460938 -65.554688 227.003906 -64.132812 225.582031 C -62.710938 224.160156 -61.257812 222.773438 -59.765625 221.425781 C -58.277344 220.074219 -56.753906 218.761719 -55.199219 217.484375 C -53.644531 216.210938 -52.058594 214.972656 -50.445312 213.773438 C -48.828125 212.578125 -47.183594 211.417969 -45.511719 210.300781 C -43.839844 209.183594 -42.144531 208.109375 -40.417969 207.074219 C -38.691406 206.042969 -36.945312 205.050781 -35.171875 204.101562 C -33.398438 203.15625 -31.601562 202.25 -29.785156 201.390625 C -27.964844 200.53125 -26.128906 199.714844 -24.269531 198.945312 C -22.410156 198.175781 -20.535156 197.453125 -18.640625 196.777344 C -16.75 196.097656 -14.839844 195.46875 -12.914062 194.886719 C -10.992188 194.300781 -9.054688 193.765625 -7.101562 193.277344 C -5.152344 192.789062 -3.191406 192.347656 -1.21875 191.957031 C 0.753906 191.5625 2.734375 191.21875 4.722656 190.925781 C 6.714844 190.628906 8.707031 190.382812 10.710938 190.1875 C 12.710938 189.988281 14.714844 189.839844 16.722656 189.742188 C 18.734375 189.644531 20.742188 189.59375 22.753906 189.59375 C 24.765625 189.59375 26.773438 189.644531 28.78125 189.742188 C 30.792969 189.84375 32.796875 189.988281 34.796875 190.1875 C 36.800781 190.382812 38.792969 190.628906 40.785156 190.925781 C 42.773438 191.222656 44.753906 191.566406 46.726562 191.957031 C 48.699219 192.351562 50.660156 192.789062 52.609375 193.277344 C 54.5625 193.769531 56.5 194.304688 58.421875 194.886719 C 60.347656 195.472656 62.257812 196.101562 64.148438 196.78125 C 66.042969 197.457031 67.917969 198.179688 69.777344 198.949219 C 71.632812 199.71875 73.472656 200.535156 75.289062 201.394531 C 77.109375 202.253906 78.902344 203.160156 80.675781 204.109375 C 82.449219 205.054688 84.199219 206.046875 85.925781 207.082031 C 87.648438 208.113281 89.347656 209.191406 91.019531 210.308594 C 92.691406 211.425781 94.335938 212.582031 95.949219 213.78125 C 97.566406 214.980469 99.148438 216.214844 100.703125 217.492188 C 102.257812 218.765625 103.78125 220.082031 105.269531 221.429688 C 106.761719 222.78125 108.214844 224.167969 109.636719 225.589844 C 111.058594 227.011719 112.445312 228.46875 113.796875 229.957031 C 115.148438 231.449219 116.460938 232.972656 117.734375 234.527344 C 119.011719 236.082031 120.25 237.664062 121.445312 239.28125 C 122.644531 240.894531 123.800781 242.539062 124.917969 244.210938 C 126.035156 245.882812 127.109375 247.582031 128.144531 249.308594 C 129.179688 251.03125 130.167969 252.78125 131.117188 254.554688 C 132.066406 256.328125 132.96875 258.125 133.828125 259.941406 C 134.6875 261.761719 135.5 263.597656 136.269531 265.457031 C 137.039062 267.316406 137.765625 269.191406 138.441406 271.085938 C 139.117188 272.976562 139.75 274.886719 140.332031 276.8125 C 140.917969 278.734375 141.453125 280.671875 141.941406 282.625 C 142.429688 284.574219 142.867188 286.535156 143.261719 288.507812 C 143.652344 290.480469 143.996094 292.460938 144.292969 294.449219 C 144.585938 296.441406 144.832031 298.4375 145.027344 300.4375 C 145.226562 302.4375 145.375 304.441406 145.472656 306.453125 C 145.570312 308.460938 145.621094 310.46875 145.621094 312.480469 C 145.617188 314.492188 145.566406 316.5 145.464844 318.507812 C 145.363281 320.515625 145.214844 322.519531 145.015625 324.519531 C 144.816406 326.519531 144.570312 328.511719 144.273438 330.5 C 143.976562 332.488281 143.628906 334.46875 143.234375 336.4375 C 142.84375 338.410156 142.398438 340.371094 141.910156 342.320312 C 141.421875 344.269531 140.882812 346.207031 140.296875 348.128906 C 139.714844 350.050781 139.082031 351.960938 138.402344 353.851562 C 137.726562 355.742188 137 357.617188 136.230469 359.472656 C 135.460938 361.332031 134.644531 363.167969 133.785156 364.984375 C 132.925781 366.800781 132.019531 368.59375 131.070312 370.367188 C 130.125 372.140625 129.132812 373.886719 128.097656 375.609375 C 127.066406 377.335938 125.988281 379.03125 124.871094 380.703125 C 123.753906 382.375 122.597656 384.015625 121.398438 385.628906 C 120.203125 387.246094 118.964844 388.828125 117.691406 390.382812 C 116.414062 391.9375 115.101562 393.457031 113.753906 394.945312 C 112.402344 396.4375 111.015625 397.890625 109.59375 399.3125 C 108.175781 400.734375 106.71875 402.121094 105.230469 403.46875 C 103.742188 404.820312 102.21875 406.132812 100.664062 407.40625 C 99.113281 408.683594 97.527344 409.917969 95.914062 411.117188 C 94.300781 412.316406 92.65625 413.472656 90.984375 414.589844 C 89.316406 415.707031 87.617188 416.78125 85.894531 417.816406 C 84.171875 418.851562 82.421875 419.839844 80.648438 420.789062 C 78.878906 421.738281 77.082031 422.640625 75.265625 423.5 C 73.449219 424.363281 71.613281 425.175781 69.757812 425.949219 C 67.902344 426.71875 66.027344 427.441406 64.132812 428.121094 C 62.242188 428.796875 60.335938 429.429688 58.410156 430.015625 C 56.488281 430.601562 54.550781 431.136719 52.601562 431.628906 C 50.652344 432.117188 48.695312 432.558594 46.722656 432.953125 C 44.75 433.347656 42.773438 433.691406 40.785156 433.988281 C 38.796875 434.285156 36.800781 434.53125 34.800781 434.730469 C 32.800781 434.929688 30.796875 435.082031 28.789062 435.183594 C 26.78125 435.28125 24.773438 435.332031 22.765625 435.335938 Z M 22.765625 195.734375 C 20.851562 195.734375 18.945312 195.78125 17.035156 195.875 C 15.128906 195.96875 13.222656 196.109375 11.320312 196.296875 C 9.417969 196.484375 7.523438 196.71875 5.632812 196.996094 C 3.742188 197.277344 1.859375 197.601562 -0.0117188 197.976562 C -1.886719 198.347656 -3.75 198.765625 -5.605469 199.230469 C -7.457031 199.695312 -9.296875 200.203125 -11.125 200.757812 C -12.957031 201.3125 -14.769531 201.910156 -16.566406 202.554688 C -18.367188 203.199219 -20.148438 203.886719 -21.914062 204.617188 C -23.679688 205.347656 -25.425781 206.121094 -27.152344 206.9375 C -28.882812 207.753906 -30.585938 208.613281 -32.273438 209.515625 C -33.957031 210.414062 -35.621094 211.355469 -37.257812 212.339844 C -38.898438 213.320312 -40.511719 214.34375 -42.101562 215.402344 C -43.6875 216.464844 -45.25 217.5625 -46.785156 218.703125 C -48.320312 219.839844 -49.828125 221.015625 -51.304688 222.226562 C -52.78125 223.4375 -54.226562 224.6875 -55.644531 225.96875 C -57.058594 227.253906 -58.441406 228.570312 -59.792969 229.921875 C -61.144531 231.269531 -62.460938 232.65625 -63.746094 234.070312 C -65.027344 235.484375 -66.277344 236.933594 -67.488281 238.410156 C -68.699219 239.886719 -69.875 241.390625 -71.015625 242.925781 C -72.152344 244.460938 -73.253906 246.023438 -74.316406 247.609375 C -75.375 249.199219 -76.398438 250.8125 -77.382812 252.453125 C -78.363281 254.089844 -79.304688 255.753906 -80.207031 257.4375 C -81.105469 259.121094 -81.964844 260.828125 -82.78125 262.554688 C -83.601562 264.28125 -84.375 266.027344 -85.105469 267.792969 C -85.835938 269.558594 -86.523438 271.339844 -87.167969 273.140625 C -87.8125 274.9375 -88.410156 276.753906 -88.964844 278.582031 C -89.519531 280.410156 -90.03125 282.25 -90.496094 284.105469 C -90.960938 285.957031 -91.378906 287.820312 -91.75 289.695312 C -92.125 291.570312 -92.449219 293.449219 -92.730469 295.339844 C -93.011719 297.230469 -93.246094 299.125 -93.433594 301.027344 C -93.621094 302.929688 -93.761719 304.832031 -93.855469 306.742188 C -93.949219 308.652344 -93.996094 310.558594 -93.996094 312.472656 C -93.996094 314.382812 -93.949219 316.289062 -93.855469 318.199219 C -93.761719 320.109375 -93.621094 322.011719 -93.433594 323.914062 C -93.25 325.816406 -93.015625 327.710938 -92.734375 329.601562 C -92.453125 331.492188 -92.128906 333.375 -91.753906 335.246094 C -91.382812 337.121094 -90.964844 338.984375 -90.5 340.839844 C -90.035156 342.691406 -89.527344 344.53125 -88.972656 346.363281 C -88.417969 348.191406 -87.820312 350.003906 -87.175781 351.804688 C -86.53125 353.601562 -85.84375 355.382812 -85.113281 357.148438 C -84.382812 358.914062 -83.609375 360.660156 -82.792969 362.386719 C -81.976562 364.117188 -81.117188 365.820312 -80.214844 367.507812 C -79.316406 369.191406 -78.375 370.855469 -77.390625 372.492188 C -76.410156 374.132812 -75.386719 375.746094 -74.324219 377.335938 C -73.265625 378.921875 -72.164062 380.484375 -71.027344 382.019531 C -69.890625 383.554688 -68.714844 385.058594 -67.5 386.539062 C -66.289062 388.015625 -65.042969 389.460938 -63.757812 390.875 C -62.476562 392.292969 -61.160156 393.675781 -59.808594 395.027344 C -58.457031 396.378906 -57.074219 397.695312 -55.660156 398.980469 C -54.242188 400.261719 -52.796875 401.507812 -51.320312 402.722656 C -49.84375 403.933594 -48.335938 405.109375 -46.800781 406.246094 C -45.269531 407.386719 -43.707031 408.484375 -42.117188 409.546875 C -40.527344 410.609375 -38.914062 411.632812 -37.277344 412.613281 C -35.636719 413.597656 -33.976562 414.539062 -32.289062 415.4375 C -30.605469 416.339844 -28.898438 417.199219 -27.171875 418.015625 C -25.445312 418.832031 -23.699219 419.605469 -21.933594 420.335938 C -20.167969 421.070312 -18.386719 421.757812 -16.585938 422.398438 C -14.789062 423.042969 -12.976562 423.644531 -11.148438 424.199219 C -9.316406 424.753906 -7.476562 425.261719 -5.625 425.726562 C -3.769531 426.191406 -1.90625 426.609375 -0.03125 426.980469 C 1.839844 427.355469 3.722656 427.683594 5.613281 427.960938 C 7.503906 428.242188 9.398438 428.476562 11.300781 428.664062 C 13.203125 428.851562 15.105469 428.992188 17.015625 429.085938 C 18.921875 429.179688 20.832031 429.226562 22.742188 429.226562 C 24.652344 429.226562 26.5625 429.179688 28.472656 429.085938 C 30.378906 428.992188 32.285156 428.851562 34.1875 428.664062 C 36.089844 428.476562 37.984375 428.242188 39.875 427.964844 C 41.765625 427.683594 43.644531 427.355469 45.519531 426.984375 C 47.394531 426.613281 49.257812 426.191406 51.113281 425.730469 C 52.964844 425.265625 54.804688 424.753906 56.632812 424.199219 C 58.460938 423.644531 60.277344 423.046875 62.074219 422.402344 C 63.875 421.757812 65.65625 421.074219 67.421875 420.339844 C 69.1875 419.609375 70.933594 418.835938 72.660156 418.019531 C 74.386719 417.203125 76.09375 416.34375 77.777344 415.441406 C 79.464844 414.542969 81.125 413.601562 82.765625 412.617188 C 84.402344 411.636719 86.019531 410.613281 87.605469 409.554688 C 89.195312 408.492188 90.757812 407.390625 92.292969 406.253906 C 93.824219 405.117188 95.332031 403.941406 96.808594 402.726562 C 98.285156 401.515625 99.730469 400.269531 101.148438 398.984375 C 102.5625 397.703125 103.949219 396.386719 105.296875 395.035156 C 106.648438 393.683594 107.964844 392.300781 109.25 390.882812 C 110.53125 389.46875 111.78125 388.023438 112.992188 386.546875 C 114.203125 385.066406 115.378906 383.5625 116.519531 382.027344 C 117.65625 380.492188 118.757812 378.929688 119.816406 377.34375 C 120.878906 375.753906 121.902344 374.140625 122.882812 372.5 C 123.867188 370.863281 124.808594 369.199219 125.707031 367.515625 C 126.609375 365.832031 127.46875 364.125 128.285156 362.398438 C 129.101562 360.671875 129.875 358.925781 130.605469 357.160156 C 131.339844 355.394531 132.027344 353.613281 132.667969 351.8125 C 133.3125 350.011719 133.914062 348.199219 134.46875 346.371094 C 135.023438 344.542969 135.53125 342.703125 135.996094 340.847656 C 136.460938 338.996094 136.878906 337.132812 137.25 335.257812 C 137.625 333.382812 137.949219 331.5 138.230469 329.613281 C 138.511719 327.722656 138.746094 325.824219 138.933594 323.925781 C 139.121094 322.023438 139.261719 320.117188 139.355469 318.210938 C 139.449219 316.300781 139.496094 314.390625 139.492188 312.480469 C 139.492188 310.570312 139.441406 308.664062 139.347656 306.753906 C 139.253906 304.847656 139.109375 302.941406 138.921875 301.042969 C 138.730469 299.140625 138.496094 297.246094 138.214844 295.359375 C 137.933594 293.46875 137.605469 291.589844 137.230469 289.714844 C 136.855469 287.84375 136.4375 285.980469 135.972656 284.128906 C 135.507812 282.273438 134.996094 280.433594 134.441406 278.609375 C 133.886719 276.78125 133.285156 274.96875 132.640625 273.171875 C 131.996094 271.371094 131.308594 269.589844 130.578125 267.828125 C 129.84375 266.0625 129.070312 264.316406 128.253906 262.589844 C 127.433594 260.863281 126.574219 259.160156 125.675781 257.476562 C 124.773438 255.792969 123.832031 254.132812 122.851562 252.492188 C 121.867188 250.855469 120.847656 249.242188 119.785156 247.65625 C 118.722656 246.066406 117.625 244.503906 116.484375 242.972656 C 115.347656 241.4375 114.171875 239.933594 112.960938 238.457031 C 111.75 236.980469 110.503906 235.535156 109.21875 234.121094 C 107.9375 232.703125 106.621094 231.320312 105.269531 229.972656 C 103.917969 228.621094 102.535156 227.304688 101.121094 226.019531 C 99.707031 224.738281 98.261719 223.492188 96.785156 222.277344 C 95.308594 221.066406 93.804688 219.890625 92.269531 218.753906 C 90.738281 217.613281 89.175781 216.515625 87.589844 215.453125 C 86 214.390625 84.386719 213.371094 82.75 212.386719 C 81.113281 211.40625 79.449219 210.460938 77.765625 209.5625 C 76.082031 208.660156 74.378906 207.800781 72.652344 206.984375 C 70.925781 206.167969 69.179688 205.390625 67.417969 204.660156 C 65.652344 203.925781 63.871094 203.238281 62.074219 202.59375 C 60.277344 201.949219 58.464844 201.347656 56.636719 200.792969 C 54.808594 200.238281 52.96875 199.726562 51.117188 199.261719 C 49.265625 198.796875 47.402344 198.375 45.527344 198 C 43.65625 197.628906 41.777344 197.300781 39.886719 197.015625 C 37.996094 196.734375 36.101562 196.5 34.203125 196.308594 C 32.300781 196.121094 30.398438 195.976562 28.488281 195.882812 C 26.582031 195.785156 24.675781 195.738281 22.765625 195.734375 Z M 22.765625 372.292969 C 20.804688 372.292969 18.851562 372.195312 16.902344 372.003906 C 14.953125 371.8125 13.015625 371.527344 11.09375 371.144531 C 9.175781 370.761719 7.277344 370.285156 5.402344 369.71875 C 3.527344 369.148438 1.683594 368.488281 -0.125 367.738281 C -1.933594 366.992188 -3.703125 366.152344 -5.429688 365.230469 C -7.160156 364.308594 -8.835938 363.300781 -10.464844 362.214844 C -12.09375 361.125 -13.667969 359.960938 -15.179688 358.714844 C -16.695312 357.472656 -18.144531 356.160156 -19.53125 354.773438 C -20.914062 353.390625 -22.230469 351.941406 -23.472656 350.425781 C -24.714844 348.910156 -25.878906 347.339844 -26.96875 345.710938 C -28.054688 344.082031 -29.0625 342.402344 -29.984375 340.675781 C -30.910156 338.949219 -31.746094 337.179688 -32.496094 335.371094 C -33.246094 333.558594 -33.902344 331.71875 -34.472656 329.84375 C -35.042969 327.96875 -35.515625 326.070312 -35.898438 324.148438 C -36.28125 322.226562 -36.566406 320.292969 -36.761719 318.34375 C -36.953125 316.394531 -37.046875 314.441406 -37.046875 312.480469 C -37.046875 310.523438 -36.953125 308.566406 -36.761719 306.617188 C -36.566406 304.667969 -36.28125 302.734375 -35.898438 300.8125 C -35.515625 298.890625 -35.042969 296.992188 -34.472656 295.117188 C -33.902344 293.242188 -33.246094 291.402344 -32.496094 289.59375 C -31.746094 287.78125 -30.910156 286.011719 -29.984375 284.285156 C -29.0625 282.558594 -28.054688 280.878906 -26.96875 279.25 C -25.878906 277.621094 -24.714844 276.050781 -23.472656 274.535156 C -22.230469 273.023438 -20.914062 271.574219 -19.53125 270.1875 C -18.144531 268.800781 -16.695312 267.488281 -15.179688 266.246094 C -13.667969 265.003906 -12.09375 263.835938 -10.464844 262.75 C -8.835938 261.660156 -7.160156 260.65625 -5.429688 259.730469 C -3.703125 258.808594 -1.933594 257.972656 -0.125 257.222656 C 1.683594 256.472656 3.527344 255.8125 5.402344 255.246094 C 7.277344 254.675781 9.175781 254.199219 11.09375 253.816406 C 13.015625 253.4375 14.953125 253.148438 16.902344 252.957031 C 18.851562 252.765625 20.804688 252.667969 22.765625 252.667969 C 24.722656 252.667969 26.675781 252.765625 28.625 252.957031 C 30.574219 253.148438 32.511719 253.4375 34.433594 253.816406 C 36.355469 254.199219 38.253906 254.675781 40.125 255.246094 C 42 255.8125 43.84375 256.472656 45.652344 257.222656 C 47.464844 257.972656 49.230469 258.808594 50.960938 259.730469 C 52.6875 260.65625 54.363281 261.660156 55.992188 262.75 C 57.621094 263.835938 59.195312 265.003906 60.707031 266.246094 C 62.222656 267.488281 63.671875 268.800781 65.058594 270.1875 C 66.441406 271.574219 67.757812 273.023438 69 274.535156 C 70.242188 276.050781 71.40625 277.621094 72.496094 279.25 C 73.585938 280.878906 74.589844 282.558594 75.511719 284.285156 C 76.4375 286.011719 77.273438 287.78125 78.023438 289.59375 C 78.773438 291.402344 79.433594 293.242188 80 295.117188 C 80.570312 296.992188 81.042969 298.890625 81.425781 300.8125 C 81.808594 302.734375 82.097656 304.667969 82.289062 306.617188 C 82.480469 308.566406 82.574219 310.523438 82.574219 312.480469 C 82.574219 314.4375 82.476562 316.394531 82.28125 318.339844 C 82.089844 320.289062 81.800781 322.226562 81.417969 324.144531 C 81.03125 326.066406 80.554688 327.964844 79.988281 329.835938 C 79.417969 331.710938 78.757812 333.550781 78.007812 335.359375 C 77.257812 337.167969 76.417969 338.9375 75.496094 340.664062 C 74.570312 342.390625 73.566406 344.066406 72.476562 345.695312 C 71.390625 347.324219 70.222656 348.894531 68.980469 350.410156 C 67.738281 351.921875 66.425781 353.371094 65.039062 354.757812 C 63.65625 356.140625 62.207031 357.453125 60.691406 358.699219 C 59.179688 359.941406 57.605469 361.105469 55.980469 362.195312 C 54.351562 363.28125 52.675781 364.289062 50.945312 365.210938 C 49.21875 366.136719 47.453125 366.972656 45.644531 367.722656 C 43.835938 368.472656 41.992188 369.132812 40.121094 369.703125 C 38.246094 370.273438 36.347656 370.75 34.429688 371.132812 C 32.507812 371.515625 30.574219 371.804688 28.625 372 C 26.675781 372.191406 24.722656 372.292969 22.765625 372.292969 Z M 22.765625 258.792969 C 21.003906 258.792969 19.25 258.878906 17.5 259.050781 C 15.75 259.226562 14.015625 259.484375 12.289062 259.824219 C 10.566406 260.167969 8.863281 260.59375 7.179688 261.105469 C 5.496094 261.617188 3.84375 262.207031 2.21875 262.878906 C 0.59375 263.554688 -0.992188 264.304688 -2.542969 265.132812 C -4.09375 265.960938 -5.601562 266.863281 -7.0625 267.84375 C -8.523438 268.820312 -9.933594 269.863281 -11.292969 270.980469 C -12.652344 272.097656 -13.957031 273.273438 -15.199219 274.519531 C -16.441406 275.761719 -17.621094 277.0625 -18.738281 278.421875 C -19.851562 279.78125 -20.898438 281.191406 -21.875 282.652344 C -22.851562 284.117188 -23.753906 285.621094 -24.582031 287.171875 C -25.414062 288.722656 -26.164062 290.3125 -26.835938 291.9375 C -27.507812 293.558594 -28.101562 295.214844 -28.609375 296.894531 C -29.121094 298.578125 -29.546875 300.28125 -29.890625 302.007812 C -30.234375 303.730469 -30.492188 305.46875 -30.664062 307.21875 C -30.835938 308.96875 -30.921875 310.722656 -30.921875 312.480469 C -30.921875 314.238281 -30.835938 315.992188 -30.664062 317.742188 C -30.492188 319.492188 -30.234375 321.230469 -29.890625 322.953125 C -29.546875 324.679688 -29.121094 326.382812 -28.609375 328.066406 C -28.101562 329.746094 -27.507812 331.402344 -26.835938 333.027344 C -26.164062 334.652344 -25.414062 336.238281 -24.582031 337.789062 C -23.753906 339.339844 -22.851562 340.847656 -21.875 342.308594 C -20.898438 343.769531 -19.851562 345.179688 -18.738281 346.539062 C -17.621094 347.898438 -16.441406 349.199219 -15.199219 350.441406 C -13.957031 351.6875 -12.652344 352.867188 -11.292969 353.980469 C -9.933594 355.097656 -8.523438 356.144531 -7.0625 357.121094 C -5.601562 358.097656 -4.09375 359 -2.542969 359.828125 C -0.992188 360.65625 0.59375 361.410156 2.21875 362.082031 C 3.84375 362.753906 5.496094 363.347656 7.179688 363.855469 C 8.863281 364.367188 10.566406 364.792969 12.289062 365.136719 C 14.015625 365.480469 15.75 365.738281 17.5 365.910156 C 19.25 366.082031 21.003906 366.167969 22.765625 366.167969 C 24.523438 366.167969 26.277344 366.082031 28.027344 365.910156 C 29.777344 365.738281 31.511719 365.480469 33.238281 365.136719 C 34.960938 364.792969 36.664062 364.367188 38.347656 363.855469 C 40.03125 363.347656 41.683594 362.753906 43.308594 362.082031 C 44.933594 361.410156 46.519531 360.65625 48.070312 359.828125 C 49.621094 359 51.128906 358.097656 52.589844 357.121094 C 54.054688 356.144531 55.464844 355.097656 56.824219 353.980469 C 58.183594 352.867188 59.484375 351.6875 60.726562 350.441406 C 61.96875 349.199219 63.148438 347.898438 64.265625 346.539062 C 65.378906 345.179688 66.425781 343.769531 67.402344 342.308594 C 68.378906 340.847656 69.28125 339.339844 70.113281 337.789062 C 70.941406 336.238281 71.691406 334.652344 72.363281 333.027344 C 73.039062 331.402344 73.628906 329.746094 74.140625 328.066406 C 74.648438 326.382812 75.078125 324.679688 75.417969 322.953125 C 75.761719 321.230469 76.019531 319.492188 76.191406 317.742188 C 76.363281 315.992188 76.449219 314.238281 76.449219 312.480469 C 76.449219 310.722656 76.363281 308.96875 76.1875 307.21875 C 76.015625 305.472656 75.757812 303.734375 75.410156 302.011719 C 75.066406 300.285156 74.640625 298.582031 74.128906 296.902344 C 73.617188 295.21875 73.027344 293.566406 72.351562 291.941406 C 71.679688 290.320312 70.925781 288.730469 70.097656 287.183594 C 69.269531 285.632812 68.367188 284.125 67.390625 282.664062 C 66.410156 281.203125 65.367188 279.792969 64.25 278.433594 C 63.136719 277.074219 61.957031 275.773438 60.714844 274.53125 C 59.46875 273.289062 58.167969 272.109375 56.808594 270.996094 C 55.453125 269.878906 54.042969 268.832031 52.578125 267.855469 C 51.117188 266.878906 49.613281 265.976562 48.0625 265.148438 C 46.511719 264.316406 44.925781 263.566406 43.300781 262.894531 C 41.679688 262.21875 40.023438 261.628906 38.34375 261.117188 C 36.660156 260.605469 34.957031 260.175781 33.234375 259.832031 C 31.511719 259.488281 29.773438 259.230469 28.023438 259.058594 C 26.277344 258.882812 24.523438 258.796875 22.765625 258.792969 Z M 22.765625 258.792969"/></g></g></g></g><g mask="url(#dd496613e9)"><g><g clip-path="url(#1b6e18cb8b)" transform="matrix(1, 0, 0, 1, 227, 1216)"><g clip-path="url(#3895154ace)"><path fill="#a6a6a6" fill-opacity="1" fill-rule="nonzero" d="M 313.027344 625 C 140.972656 625 1 485.027344 1 312.984375 C 1 140.945312 140.972656 0.953125 313.027344 0.953125 C 485.085938 0.953125 625.042969 140.929688 625.042969 312.984375 C 625.042969 485.042969 485.070312 625 313.027344 625 Z M 313.027344 7.082031 C 144.355469 7.082031 7.125 144.3125 7.125 312.984375 C 7.125 481.65625 144.355469 618.875 313.027344 618.875 C 481.699219 618.875 618.917969 481.65625 618.917969 312.984375 C 618.917969 144.3125 481.699219 7.082031 313.027344 7.082031 Z M 313.027344 561.957031 C 175.734375 561.957031 64.054688 450.265625 64.054688 312.984375 C 64.054688 175.707031 175.734375 64.011719 313.027344 64.011719 C 450.324219 64.011719 562 175.691406 562 312.984375 C 562 450.28125 450.308594 561.957031 313.027344 561.957031 Z M 313.027344 70.136719 C 179.117188 70.136719 70.183594 179.074219 70.183594 312.984375 C 70.183594 446.898438 179.117188 555.832031 313.027344 555.832031 C 446.941406 555.832031 555.875 446.882812 555.875 312.984375 C 555.875 179.089844 446.925781 70.136719 313.027344 70.136719 Z M 313.027344 498.898438 C 309.984375 498.898438 306.945312 498.824219 303.90625 498.675781 C 300.867188 498.527344 297.832031 498.304688 294.804688 498.003906 C 291.777344 497.707031 288.757812 497.335938 285.746094 496.890625 C 282.734375 496.441406 279.738281 495.921875 276.753906 495.328125 C 273.769531 494.734375 270.800781 494.070312 267.851562 493.332031 C 264.898438 492.589844 261.964844 491.78125 259.054688 490.898438 C 256.140625 490.015625 253.253906 489.058594 250.386719 488.035156 C 247.523438 487.011719 244.683594 485.914062 241.875 484.75 C 239.0625 483.585938 236.28125 482.355469 233.53125 481.054688 C 230.777344 479.753906 228.0625 478.386719 225.378906 476.949219 C 222.695312 475.515625 220.046875 474.015625 217.4375 472.453125 C 214.828125 470.890625 212.257812 469.261719 209.726562 467.570312 C 207.195312 465.878906 204.707031 464.128906 202.265625 462.316406 C 199.820312 460.503906 197.421875 458.632812 195.070312 456.703125 C 192.71875 454.773438 190.414062 452.785156 188.160156 450.742188 C 185.902344 448.699219 183.699219 446.601562 181.550781 444.449219 C 179.398438 442.296875 177.300781 440.09375 175.253906 437.839844 C 173.210938 435.585938 171.226562 433.28125 169.292969 430.929688 C 167.363281 428.578125 165.492188 426.179688 163.679688 423.734375 C 161.867188 421.292969 160.113281 418.804688 158.425781 416.273438 C 156.734375 413.746094 155.105469 411.175781 153.542969 408.5625 C 151.976562 405.953125 150.476562 403.308594 149.042969 400.625 C 147.609375 397.941406 146.238281 395.222656 144.9375 392.472656 C 143.636719 389.722656 142.40625 386.941406 141.242188 384.128906 C 140.074219 381.316406 138.980469 378.480469 137.957031 375.613281 C 136.929688 372.75 135.976562 369.859375 135.09375 366.949219 C 134.210938 364.039062 133.398438 361.105469 132.65625 358.152344 C 131.917969 355.203125 131.25 352.234375 130.65625 349.25 C 130.0625 346.265625 129.542969 343.269531 129.097656 340.257812 C 128.652344 337.246094 128.277344 334.230469 127.980469 331.199219 C 127.683594 328.171875 127.457031 325.136719 127.308594 322.097656 C 127.160156 319.058594 127.085938 316.019531 127.085938 312.976562 C 127.085938 309.933594 127.160156 306.890625 127.308594 303.851562 C 127.457031 300.8125 127.679688 297.777344 127.980469 294.75 C 128.277344 291.722656 128.648438 288.703125 129.097656 285.691406 C 129.542969 282.683594 130.0625 279.6875 130.65625 276.699219 C 131.25 273.714844 131.917969 270.75 132.65625 267.796875 C 133.394531 264.84375 134.207031 261.914062 135.089844 259 C 135.972656 256.089844 136.925781 253.199219 137.953125 250.335938 C 138.976562 247.46875 140.070312 244.632812 141.238281 241.820312 C 142.402344 239.007812 143.632812 236.226562 144.933594 233.476562 C 146.234375 230.726562 147.601562 228.007812 149.039062 225.324219 C 150.472656 222.640625 151.972656 219.996094 153.535156 217.386719 C 155.101562 214.773438 156.726562 212.203125 158.417969 209.675781 C 160.109375 207.144531 161.859375 204.65625 163.671875 202.214844 C 165.484375 199.769531 167.359375 197.371094 169.289062 195.019531 C 171.21875 192.667969 173.207031 190.363281 175.25 188.109375 C 177.292969 185.855469 179.390625 183.648438 181.542969 181.5 C 183.695312 179.347656 185.898438 177.25 188.152344 175.207031 C 190.40625 173.164062 192.710938 171.175781 195.0625 169.246094 C 197.414062 167.3125 199.8125 165.441406 202.257812 163.628906 C 204.699219 161.816406 207.1875 160.066406 209.71875 158.375 C 212.246094 156.683594 214.816406 155.058594 217.429688 153.492188 C 220.039062 151.929688 222.683594 150.429688 225.367188 148.996094 C 228.050781 147.558594 230.769531 146.191406 233.519531 144.890625 C 236.269531 143.589844 239.050781 142.359375 241.863281 141.191406 C 244.675781 140.027344 247.511719 138.933594 250.378906 137.910156 C 253.242188 136.882812 256.132812 135.929688 259.042969 135.046875 C 261.957031 134.164062 264.886719 133.351562 267.839844 132.613281 C 270.792969 131.875 273.757812 131.207031 276.746094 130.613281 C 279.730469 130.019531 282.726562 129.5 285.734375 129.054688 C 288.746094 128.605469 291.765625 128.234375 294.792969 127.9375 C 297.820312 127.636719 300.855469 127.414062 303.894531 127.265625 C 306.933594 127.117188 309.976562 127.042969 313.019531 127.042969 C 316.0625 127.042969 319.101562 127.117188 322.140625 127.265625 C 325.179688 127.414062 328.214844 127.640625 331.242188 127.9375 C 334.273438 128.234375 337.289062 128.609375 340.300781 129.054688 C 343.3125 129.5 346.308594 130.019531 349.292969 130.613281 C 352.277344 131.207031 355.246094 131.875 358.195312 132.613281 C 361.148438 133.355469 364.082031 134.164062 366.992188 135.050781 C 369.90625 135.933594 372.792969 136.886719 375.65625 137.914062 C 378.523438 138.9375 381.359375 140.03125 384.171875 141.195312 C 386.984375 142.363281 389.765625 143.59375 392.515625 144.894531 C 395.265625 146.195312 397.984375 147.566406 400.667969 149 C 403.351562 150.433594 405.996094 151.933594 408.609375 153.5 C 411.21875 155.0625 413.789062 156.691406 416.316406 158.382812 C 418.847656 160.070312 421.335938 161.824219 423.777344 163.636719 C 426.222656 165.449219 428.621094 167.320312 430.972656 169.25 C 433.324219 171.183594 435.628906 173.167969 437.882812 175.210938 C 440.136719 177.257812 442.339844 179.355469 444.492188 181.503906 C 446.644531 183.65625 448.742188 185.859375 450.785156 188.117188 C 452.828125 190.371094 454.816406 192.675781 456.746094 195.027344 C 458.675781 197.378906 460.546875 199.777344 462.359375 202.222656 C 464.171875 204.664062 465.921875 207.152344 467.613281 209.683594 C 469.304688 212.214844 470.933594 214.785156 472.496094 217.394531 C 474.058594 220.003906 475.558594 222.652344 476.992188 225.335938 C 478.429688 228.019531 479.796875 230.734375 481.097656 233.488281 C 482.398438 236.238281 483.628906 239.019531 484.792969 241.832031 C 485.957031 244.640625 487.054688 247.480469 488.078125 250.34375 C 489.101562 253.210938 490.058594 256.097656 490.941406 259.011719 C 491.824219 261.921875 492.632812 264.855469 493.375 267.804688 C 494.113281 270.757812 494.777344 273.726562 495.371094 276.710938 C 495.964844 279.695312 496.484375 282.691406 496.933594 285.703125 C 497.378906 288.714844 497.75 291.730469 498.046875 294.761719 C 498.347656 297.789062 498.570312 300.824219 498.71875 303.863281 C 498.867188 306.902344 498.941406 309.941406 498.941406 312.984375 C 498.9375 316.027344 498.859375 319.066406 498.707031 322.105469 C 498.554688 325.144531 498.328125 328.175781 498.027344 331.203125 C 497.726562 334.226562 497.351562 337.246094 496.902344 340.253906 C 496.453125 343.261719 495.929688 346.257812 495.335938 349.242188 C 494.738281 352.222656 494.070312 355.191406 493.328125 358.140625 C 492.585938 361.089844 491.773438 364.019531 490.890625 366.929688 C 490.003906 369.839844 489.046875 372.726562 488.023438 375.589844 C 486.996094 378.453125 485.898438 381.289062 484.734375 384.097656 C 483.566406 386.90625 482.335938 389.6875 481.03125 392.4375 C 479.730469 395.183594 478.363281 397.902344 476.925781 400.582031 C 475.492188 403.265625 473.992188 405.910156 472.425781 408.519531 C 470.863281 411.125 469.234375 413.695312 467.542969 416.222656 C 465.855469 418.75 464.101562 421.238281 462.289062 423.679688 C 460.476562 426.121094 458.605469 428.519531 456.675781 430.871094 C 454.746094 433.222656 452.761719 435.523438 450.71875 437.777344 C 448.675781 440.03125 446.578125 442.234375 444.425781 444.382812 C 442.277344 446.535156 440.074219 448.632812 437.820312 450.675781 C 435.566406 452.71875 433.265625 454.703125 430.914062 456.632812 C 428.5625 458.5625 426.164062 460.433594 423.722656 462.246094 C 421.28125 464.058594 418.792969 465.8125 416.265625 467.5 C 413.738281 469.191406 411.167969 470.820312 408.5625 472.382812 C 405.953125 473.949219 403.308594 475.449219 400.625 476.882812 C 397.945312 478.320312 395.226562 479.6875 392.480469 480.988281 C 389.730469 482.289062 386.949219 483.523438 384.140625 484.691406 C 381.332031 485.855469 378.496094 486.953125 375.632812 487.980469 C 372.769531 489.003906 369.882812 489.960938 366.972656 490.847656 C 364.0625 491.730469 361.132812 492.542969 358.183594 493.285156 C 355.234375 494.027344 352.265625 494.695312 349.285156 495.292969 C 346.300781 495.886719 343.304688 496.410156 340.296875 496.859375 C 337.289062 497.308594 334.269531 497.683594 331.246094 497.984375 C 328.21875 498.285156 325.1875 498.511719 322.148438 498.664062 C 319.109375 498.816406 316.070312 498.894531 313.027344 498.898438 Z M 313.027344 133.183594 C 310.085938 133.179688 307.144531 133.253906 304.207031 133.398438 C 301.265625 133.542969 298.332031 133.757812 295.40625 134.046875 C 292.476562 134.335938 289.554688 134.695312 286.644531 135.125 C 283.734375 135.558594 280.835938 136.058594 277.949219 136.632812 C 275.0625 137.207031 272.191406 137.851562 269.339844 138.566406 C 266.484375 139.28125 263.648438 140.066406 260.832031 140.917969 C 258.015625 141.773438 255.222656 142.695312 252.453125 143.6875 C 249.683594 144.679688 246.9375 145.738281 244.21875 146.863281 C 241.5 147.988281 238.808594 149.179688 236.148438 150.4375 C 233.488281 151.695312 230.863281 153.019531 228.265625 154.40625 C 225.671875 155.792969 223.113281 157.242188 220.585938 158.753906 C 218.0625 160.269531 215.578125 161.84375 213.128906 163.476562 C 210.683594 165.113281 208.277344 166.804688 205.914062 168.558594 C 203.550781 170.3125 201.230469 172.121094 198.957031 173.988281 C 196.683594 175.855469 194.453125 177.773438 192.273438 179.75 C 190.09375 181.726562 187.960938 183.753906 185.882812 185.835938 C 183.800781 187.917969 181.773438 190.046875 179.796875 192.226562 C 177.820312 194.40625 175.898438 196.636719 174.03125 198.910156 C 172.164062 201.183594 170.355469 203.503906 168.601562 205.867188 C 166.847656 208.230469 165.152344 210.636719 163.519531 213.082031 C 161.882812 215.527344 160.308594 218.015625 158.796875 220.539062 C 157.285156 223.0625 155.832031 225.621094 154.445312 228.214844 C 153.058594 230.8125 151.734375 233.4375 150.476562 236.097656 C 149.21875 238.757812 148.027344 241.449219 146.902344 244.167969 C 145.773438 246.886719 144.714844 249.628906 143.722656 252.402344 C 142.730469 255.171875 141.808594 257.964844 140.953125 260.78125 C 140.101562 263.597656 139.316406 266.433594 138.601562 269.285156 C 137.886719 272.140625 137.242188 275.011719 136.667969 277.898438 C 136.09375 280.78125 135.589844 283.679688 135.15625 286.59375 C 134.726562 289.503906 134.363281 292.421875 134.078125 295.351562 C 133.789062 298.28125 133.570312 301.214844 133.425781 304.152344 C 133.28125 307.09375 133.210938 310.03125 133.210938 312.976562 C 133.210938 315.917969 133.28125 318.859375 133.425781 321.796875 C 133.570312 324.738281 133.785156 327.671875 134.074219 330.597656 C 134.363281 333.527344 134.722656 336.449219 135.152344 339.359375 C 135.585938 342.269531 136.089844 345.167969 136.664062 348.054688 C 137.238281 350.941406 137.878906 353.8125 138.59375 356.664062 C 139.308594 359.519531 140.09375 362.355469 140.949219 365.171875 C 141.804688 367.988281 142.726562 370.78125 143.71875 373.550781 C 144.707031 376.320312 145.765625 379.066406 146.894531 381.785156 C 148.019531 384.503906 149.210938 387.195312 150.46875 389.855469 C 151.726562 392.515625 153.050781 395.140625 154.4375 397.738281 C 155.824219 400.332031 157.273438 402.890625 158.785156 405.414062 C 160.296875 407.941406 161.871094 410.425781 163.507812 412.871094 C 165.140625 415.320312 166.835938 417.722656 168.589844 420.089844 C 170.339844 422.453125 172.152344 424.769531 174.019531 427.046875 C 175.882812 429.320312 177.804688 431.546875 179.78125 433.730469 C 181.757812 435.910156 183.785156 438.039062 185.867188 440.121094 C 187.949219 442.203125 190.078125 444.230469 192.257812 446.207031 C 194.4375 448.183594 196.667969 450.105469 198.941406 451.972656 C 201.214844 453.839844 203.535156 455.648438 205.898438 457.402344 C 208.261719 459.152344 210.667969 460.847656 213.113281 462.484375 C 215.558594 464.117188 218.046875 465.691406 220.570312 467.203125 C 223.09375 468.71875 225.652344 470.167969 228.25 471.554688 C 230.84375 472.941406 233.472656 474.265625 236.132812 475.523438 C 238.792969 476.78125 241.480469 477.972656 244.199219 479.101562 C 246.917969 480.226562 249.664062 481.285156 252.433594 482.277344 C 255.203125 483.269531 257.996094 484.191406 260.8125 485.046875 C 263.628906 485.898438 266.464844 486.683594 269.320312 487.398438 C 272.171875 488.113281 275.042969 488.757812 277.929688 489.332031 C 280.816406 489.90625 283.714844 490.410156 286.625 490.84375 C 289.535156 491.273438 292.457031 491.632812 295.382812 491.921875 C 298.3125 492.210938 301.246094 492.429688 304.183594 492.574219 C 307.125 492.71875 310.066406 492.789062 313.007812 492.789062 C 315.949219 492.789062 318.890625 492.71875 321.832031 492.574219 C 324.769531 492.429688 327.703125 492.210938 330.632812 491.925781 C 333.5625 491.636719 336.480469 491.277344 339.390625 490.84375 C 342.300781 490.414062 345.199219 489.910156 348.085938 489.335938 C 350.972656 488.761719 353.84375 488.117188 356.699219 487.402344 C 359.550781 486.6875 362.386719 485.902344 365.203125 485.046875 C 368.019531 484.195312 370.8125 483.273438 373.582031 482.28125 C 376.355469 481.289062 379.097656 480.230469 381.816406 479.105469 C 384.535156 477.976562 387.226562 476.785156 389.886719 475.527344 C 392.546875 474.269531 395.175781 472.945312 397.769531 471.558594 C 400.363281 470.171875 402.925781 468.722656 405.449219 467.210938 C 407.972656 465.699219 410.457031 464.125 412.90625 462.488281 C 415.351562 460.855469 417.757812 459.160156 420.121094 457.40625 C 422.484375 455.65625 424.800781 453.84375 427.078125 451.976562 C 429.351562 450.109375 431.578125 448.191406 433.761719 446.214844 C 435.941406 444.238281 438.070312 442.207031 440.152344 440.128906 C 442.234375 438.046875 444.261719 435.917969 446.238281 433.734375 C 448.214844 431.554688 450.136719 429.328125 452.003906 427.054688 C 453.867188 424.777344 455.679688 422.460938 457.433594 420.097656 C 459.183594 417.734375 460.878906 415.328125 462.515625 412.882812 C 464.148438 410.433594 465.722656 407.949219 467.234375 405.425781 C 468.75 402.902344 470.199219 400.339844 471.585938 397.746094 C 472.972656 395.152344 474.296875 392.523438 475.554688 389.863281 C 476.8125 387.203125 478.003906 384.511719 479.128906 381.792969 C 480.257812 379.074219 481.316406 376.332031 482.304688 373.5625 C 483.296875 370.789062 484.21875 367.996094 485.074219 365.179688 C 485.929688 362.363281 486.714844 359.53125 487.429688 356.675781 C 488.144531 353.820312 488.789062 350.949219 489.363281 348.0625 C 489.9375 345.179688 490.4375 342.28125 490.871094 339.367188 C 491.304688 336.457031 491.664062 333.539062 491.953125 330.609375 C 492.238281 327.679688 492.457031 324.746094 492.601562 321.808594 C 492.746094 318.871094 492.816406 315.929688 492.816406 312.984375 C 492.8125 310.042969 492.738281 307.105469 492.589844 304.167969 C 492.445312 301.230469 492.226562 298.296875 491.933594 295.367188 C 491.640625 292.441406 491.28125 289.523438 490.84375 286.613281 C 490.410156 283.703125 489.90625 280.808594 489.328125 277.921875 C 488.753906 275.039062 488.105469 272.171875 487.390625 269.316406 C 486.671875 266.464844 485.886719 263.628906 485.03125 260.816406 C 484.175781 258 483.25 255.210938 482.257812 252.441406 C 481.265625 249.671875 480.207031 246.929688 479.078125 244.210938 C 477.953125 241.496094 476.757812 238.808594 475.5 236.148438 C 474.242188 233.488281 472.917969 230.863281 471.53125 228.269531 C 470.140625 225.675781 468.691406 223.117188 467.179688 220.597656 C 465.664062 218.074219 464.09375 215.589844 462.457031 213.144531 C 460.820312 210.699219 459.128906 208.292969 457.375 205.933594 C 455.621094 203.570312 453.8125 201.25 451.945312 198.976562 C 450.082031 196.703125 448.160156 194.476562 446.183594 192.296875 C 444.207031 190.117188 442.179688 187.988281 440.101562 185.910156 C 438.019531 183.828125 435.890625 181.800781 433.710938 179.824219 C 431.53125 177.847656 429.304688 175.929688 427.03125 174.0625 C 424.757812 172.195312 422.441406 170.386719 420.078125 168.632812 C 417.71875 166.878906 415.3125 165.1875 412.867188 163.550781 C 410.421875 161.914062 407.9375 160.339844 405.417969 158.828125 C 402.894531 157.316406 400.335938 155.863281 397.742188 154.476562 C 395.148438 153.089844 392.523438 151.765625 389.863281 150.503906 C 387.207031 149.246094 384.519531 148.054688 381.800781 146.925781 C 379.085938 145.796875 376.339844 144.738281 373.570312 143.746094 C 370.804688 142.753906 368.011719 141.828125 365.199219 140.972656 C 362.382812 140.117188 359.550781 139.328125 356.695312 138.613281 C 353.84375 137.894531 350.976562 137.25 348.089844 136.671875 C 345.207031 136.09375 342.308594 135.589844 339.398438 135.15625 C 336.492188 134.722656 333.574219 134.359375 330.644531 134.066406 C 327.71875 133.777344 324.785156 133.554688 321.847656 133.410156 C 318.910156 133.261719 315.96875 133.183594 313.027344 133.183594 Z M 313.027344 435.839844 C 311.019531 435.839844 309.007812 435.792969 307 435.695312 C 304.992188 435.59375 302.984375 435.449219 300.984375 435.25 C 298.984375 435.054688 296.988281 434.808594 295 434.511719 C 293.007812 434.21875 291.027344 433.875 289.054688 433.484375 C 287.082031 433.089844 285.121094 432.652344 283.171875 432.160156 C 281.222656 431.671875 279.285156 431.136719 277.359375 430.554688 C 275.433594 429.96875 273.527344 429.339844 271.632812 428.664062 C 269.738281 427.984375 267.863281 427.261719 266.003906 426.492188 C 264.148438 425.722656 262.308594 424.910156 260.492188 424.050781 C 258.671875 423.191406 256.875 422.285156 255.101562 421.339844 C 253.328125 420.390625 251.582031 419.398438 249.855469 418.367188 C 248.128906 417.332031 246.433594 416.257812 244.757812 415.140625 C 243.085938 414.023438 241.445312 412.867188 239.828125 411.667969 C 238.214844 410.46875 236.628906 409.234375 235.074219 407.957031 C 233.519531 406.683594 231.996094 405.367188 230.507812 404.019531 C 229.015625 402.667969 227.558594 401.28125 226.136719 399.859375 C 224.714844 398.4375 223.328125 396.984375 221.980469 395.492188 C 220.628906 394.003906 219.316406 392.480469 218.039062 390.925781 C 216.761719 389.371094 215.527344 387.785156 214.328125 386.171875 C 213.128906 384.554688 211.972656 382.914062 210.855469 381.242188 C 209.738281 379.570312 208.664062 377.871094 207.628906 376.144531 C 206.59375 374.421875 205.601562 372.671875 204.65625 370.898438 C 203.707031 369.125 202.804688 367.328125 201.941406 365.511719 C 201.082031 363.695312 200.269531 361.855469 199.5 359.996094 C 198.730469 358.140625 198.003906 356.265625 197.328125 354.371094 C 196.648438 352.476562 196.019531 350.570312 195.4375 348.644531 C 194.851562 346.71875 194.316406 344.78125 193.828125 342.832031 C 193.339844 340.882812 192.898438 338.917969 192.503906 336.949219 C 192.113281 334.976562 191.769531 332.996094 191.472656 331.003906 C 191.179688 329.015625 190.933594 327.019531 190.734375 325.019531 C 190.539062 323.019531 190.390625 321.011719 190.292969 319.003906 C 190.191406 316.996094 190.144531 314.988281 190.144531 312.976562 C 190.144531 310.964844 190.191406 308.953125 190.289062 306.945312 C 190.390625 304.9375 190.535156 302.933594 190.734375 300.929688 C 190.929688 298.929688 191.175781 296.933594 191.472656 294.945312 C 191.765625 292.957031 192.109375 290.976562 192.503906 289.003906 C 192.894531 287.03125 193.335938 285.070312 193.824219 283.117188 C 194.3125 281.167969 194.847656 279.230469 195.433594 277.304688 C 196.015625 275.382812 196.648438 273.472656 197.324219 271.578125 C 198 269.6875 198.726562 267.808594 199.496094 265.953125 C 200.265625 264.09375 201.078125 262.257812 201.9375 260.4375 C 202.796875 258.621094 203.703125 256.824219 204.648438 255.050781 C 205.597656 253.277344 206.589844 251.527344 207.621094 249.804688 C 208.65625 248.078125 209.730469 246.378906 210.847656 244.707031 C 211.964844 243.035156 213.125 241.390625 214.320312 239.777344 C 215.519531 238.160156 216.757812 236.578125 218.03125 235.023438 C 219.308594 233.46875 220.621094 231.945312 221.972656 230.457031 C 223.324219 228.964844 224.707031 227.507812 226.128906 226.085938 C 227.554688 224.664062 229.007812 223.28125 230.5 221.929688 C 231.988281 220.578125 233.511719 219.265625 235.066406 217.988281 C 236.621094 216.714844 238.203125 215.476562 239.820312 214.277344 C 241.433594 213.082031 243.078125 211.921875 244.75 210.804688 C 246.421875 209.6875 248.121094 208.613281 249.847656 207.578125 C 251.570312 206.546875 253.320312 205.554688 255.09375 204.605469 C 256.867188 203.660156 258.664062 202.753906 260.480469 201.894531 C 262.300781 201.035156 264.136719 200.222656 265.996094 199.453125 C 267.851562 198.683594 269.730469 197.957031 271.621094 197.28125 C 273.515625 196.605469 275.425781 195.972656 277.347656 195.390625 C 279.273438 194.804688 281.210938 194.269531 283.160156 193.78125 C 285.113281 193.292969 287.074219 192.851562 289.046875 192.460938 C 291.019531 192.066406 293 191.722656 294.988281 191.429688 C 296.976562 191.132812 298.972656 190.886719 300.972656 190.691406 C 302.976562 190.492188 304.980469 190.347656 306.988281 190.246094 C 308.996094 190.148438 311.007812 190.101562 313.019531 190.101562 C 315.03125 190.101562 317.039062 190.148438 319.046875 190.25 C 321.054688 190.347656 323.0625 190.496094 325.0625 190.691406 C 327.0625 190.890625 329.058594 191.136719 331.046875 191.429688 C 333.039062 191.726562 335.019531 192.070312 336.992188 192.460938 C 338.960938 192.855469 340.925781 193.296875 342.875 193.785156 C 344.824219 194.273438 346.761719 194.808594 348.6875 195.394531 C 350.613281 195.976562 352.519531 196.605469 354.414062 197.285156 C 356.308594 197.960938 358.183594 198.6875 360.039062 199.457031 C 361.898438 200.226562 363.738281 201.039062 365.554688 201.898438 C 367.371094 202.761719 369.167969 203.664062 370.941406 204.613281 C 372.714844 205.558594 374.464844 206.550781 376.1875 207.585938 C 377.914062 208.621094 379.613281 209.695312 381.285156 210.8125 C 382.957031 211.929688 384.601562 213.085938 386.214844 214.285156 C 387.828125 215.484375 389.414062 216.71875 390.96875 217.996094 C 392.523438 219.273438 394.046875 220.585938 395.535156 221.9375 C 397.027344 223.285156 398.480469 224.671875 399.902344 226.09375 C 401.324219 227.515625 402.710938 228.972656 404.0625 230.464844 C 405.410156 231.953125 406.726562 233.476562 408 235.03125 C 409.277344 236.585938 410.511719 238.171875 411.710938 239.785156 C 412.910156 241.402344 414.066406 243.042969 415.183594 244.714844 C 416.300781 246.390625 417.375 248.085938 418.410156 249.8125 C 419.441406 251.539062 420.433594 253.285156 421.382812 255.058594 C 422.328125 256.832031 423.234375 258.628906 424.09375 260.449219 C 424.953125 262.265625 425.765625 264.105469 426.535156 265.960938 C 427.304688 267.820312 428.027344 269.695312 428.707031 271.589844 C 429.382812 273.480469 430.011719 275.390625 430.597656 277.316406 C 431.179688 279.238281 431.714844 281.179688 432.207031 283.128906 C 432.695312 285.078125 433.132812 287.039062 433.527344 289.011719 C 433.917969 290.984375 434.261719 292.964844 434.554688 294.957031 C 434.851562 296.945312 435.097656 298.941406 435.292969 300.941406 C 435.492188 302.941406 435.636719 304.949219 435.738281 306.957031 C 435.835938 308.964844 435.882812 310.976562 435.882812 312.984375 C 435.882812 314.996094 435.832031 317.003906 435.730469 319.011719 C 435.628906 321.019531 435.480469 323.023438 435.28125 325.023438 C 435.082031 327.023438 434.832031 329.015625 434.535156 331.003906 C 434.238281 332.992188 433.894531 334.972656 433.5 336.945312 C 433.105469 338.914062 432.664062 340.875 432.175781 342.824219 C 431.683594 344.773438 431.148438 346.710938 430.5625 348.632812 C 429.976562 350.554688 429.347656 352.464844 428.667969 354.355469 C 427.988281 356.246094 427.265625 358.121094 426.496094 359.980469 C 425.726562 361.835938 424.910156 363.671875 424.050781 365.488281 C 423.1875 367.304688 422.285156 369.101562 421.335938 370.871094 C 420.386719 372.644531 419.398438 374.390625 418.363281 376.117188 C 417.328125 377.839844 416.253906 379.535156 415.136719 381.207031 C 414.019531 382.878906 412.863281 384.519531 411.664062 386.136719 C 410.464844 387.75 409.230469 389.332031 407.953125 390.886719 C 406.679688 392.441406 405.367188 393.960938 404.015625 395.453125 C 402.667969 396.941406 401.28125 398.394531 399.859375 399.816406 C 398.4375 401.238281 396.984375 402.625 395.496094 403.972656 C 394.003906 405.324219 392.484375 406.636719 390.929688 407.910156 C 389.375 409.1875 387.792969 410.421875 386.179688 411.621094 C 384.5625 412.820312 382.921875 413.976562 381.25 415.09375 C 379.578125 416.210938 377.882812 417.285156 376.160156 418.320312 C 374.433594 419.355469 372.6875 420.34375 370.914062 421.292969 C 369.144531 422.242188 367.347656 423.144531 365.53125 424.007812 C 363.714844 424.867188 361.878906 425.683594 360.023438 426.453125 C 358.164062 427.222656 356.292969 427.945312 354.398438 428.625 C 352.507812 429.304688 350.597656 429.933594 348.675781 430.519531 C 346.753906 431.105469 344.816406 431.640625 342.867188 432.132812 C 340.917969 432.621094 338.957031 433.0625 336.988281 433.457031 C 335.015625 433.851562 333.035156 434.195312 331.046875 434.492188 C 329.058594 434.789062 327.066406 435.039062 325.066406 435.238281 C 323.066406 435.4375 321.0625 435.585938 319.054688 435.6875 C 317.046875 435.789062 315.039062 435.839844 313.027344 435.839844 Z M 313.027344 196.238281 C 311.117188 196.238281 309.207031 196.285156 307.300781 196.378906 C 305.390625 196.472656 303.488281 196.613281 301.585938 196.800781 C 299.683594 196.988281 297.789062 197.222656 295.898438 197.5 C 294.007812 197.78125 292.125 198.109375 290.25 198.480469 C 288.378906 198.851562 286.515625 199.269531 284.660156 199.734375 C 282.808594 200.199219 280.964844 200.707031 279.136719 201.261719 C 277.308594 201.816406 275.496094 202.417969 273.695312 203.058594 C 271.898438 203.703125 270.113281 204.390625 268.351562 205.121094 C 266.585938 205.851562 264.839844 206.625 263.109375 207.441406 C 261.382812 208.261719 259.675781 209.117188 257.992188 210.019531 C 256.308594 210.917969 254.644531 211.859375 253.007812 212.84375 C 251.367188 213.824219 249.753906 214.847656 248.164062 215.90625 C 246.574219 216.96875 245.015625 218.070312 243.480469 219.207031 C 241.945312 220.34375 240.4375 221.519531 238.960938 222.730469 C 237.484375 223.945312 236.039062 225.191406 234.621094 226.472656 C 233.207031 227.757812 231.820312 229.074219 230.472656 230.425781 C 229.121094 231.777344 227.800781 233.160156 226.519531 234.574219 C 225.234375 235.992188 223.988281 237.4375 222.777344 238.914062 C 221.5625 240.390625 220.386719 241.894531 219.25 243.429688 C 218.113281 244.964844 217.011719 246.527344 215.949219 248.117188 C 214.886719 249.703125 213.867188 251.316406 212.882812 252.957031 C 211.902344 254.59375 210.960938 256.257812 210.058594 257.941406 C 209.15625 259.625 208.300781 261.332031 207.480469 263.058594 C 206.664062 264.789062 205.890625 266.535156 205.160156 268.296875 C 204.425781 270.0625 203.738281 271.847656 203.097656 273.644531 C 202.453125 275.445312 201.851562 277.257812 201.296875 279.085938 C 200.742188 280.914062 200.234375 282.753906 199.769531 284.609375 C 199.304688 286.460938 198.886719 288.324219 198.511719 290.199219 C 198.140625 292.074219 197.8125 293.953125 197.53125 295.84375 C 197.253906 297.734375 197.019531 299.628906 196.832031 301.53125 C 196.644531 303.433594 196.503906 305.339844 196.410156 307.246094 C 196.316406 309.15625 196.269531 311.066406 196.269531 312.976562 C 196.269531 314.886719 196.316406 316.796875 196.40625 318.703125 C 196.5 320.613281 196.640625 322.515625 196.828125 324.417969 C 197.015625 326.320312 197.25 328.214844 197.53125 330.105469 C 197.808594 331.996094 198.136719 333.878906 198.507812 335.753906 C 198.882812 337.625 199.300781 339.488281 199.765625 341.34375 C 200.230469 343.195312 200.738281 345.039062 201.292969 346.867188 C 201.847656 348.695312 202.445312 350.507812 203.089844 352.308594 C 203.734375 354.105469 204.421875 355.886719 205.152344 357.652344 C 205.882812 359.417969 206.65625 361.164062 207.472656 362.894531 C 208.289062 364.621094 209.148438 366.328125 210.050781 368.011719 C 210.949219 369.695312 211.890625 371.359375 212.875 372.996094 C 213.855469 374.636719 214.878906 376.25 215.9375 377.839844 C 217 379.429688 218.101562 380.988281 219.238281 382.523438 C 220.375 384.058594 221.550781 385.566406 222.761719 387.042969 C 223.976562 388.519531 225.222656 389.964844 226.503906 391.382812 C 227.789062 392.796875 229.105469 394.179688 230.457031 395.53125 C 231.808594 396.882812 233.191406 398.199219 234.605469 399.484375 C 236.023438 400.765625 237.46875 402.015625 238.945312 403.226562 C 240.421875 404.4375 241.929688 405.613281 243.460938 406.753906 C 244.996094 407.890625 246.558594 408.992188 248.148438 410.050781 C 249.734375 411.113281 251.351562 412.136719 252.988281 413.117188 C 254.628906 414.101562 256.289062 415.042969 257.972656 415.941406 C 259.660156 416.84375 261.363281 417.703125 263.09375 418.519531 C 264.820312 419.335938 266.566406 420.109375 268.332031 420.84375 C 270.097656 421.574219 271.878906 422.261719 273.675781 422.90625 C 275.476562 423.546875 277.289062 424.148438 279.117188 424.703125 C 280.945312 425.257812 282.789062 425.765625 284.640625 426.230469 C 286.496094 426.695312 288.359375 427.113281 290.230469 427.488281 C 292.105469 427.859375 293.988281 428.1875 295.878906 428.464844 C 297.769531 428.746094 299.664062 428.980469 301.566406 429.167969 C 303.464844 429.355469 305.371094 429.496094 307.28125 429.589844 C 309.1875 429.683594 311.097656 429.730469 313.007812 429.730469 C 314.917969 429.730469 316.828125 429.683594 318.738281 429.589844 C 320.644531 429.496094 322.550781 429.355469 324.453125 429.167969 C 326.351562 428.980469 328.25 428.75 330.140625 428.46875 C 332.027344 428.1875 333.910156 427.863281 335.785156 427.488281 C 337.660156 427.117188 339.523438 426.699219 341.375 426.234375 C 343.230469 425.769531 345.070312 425.261719 346.898438 424.707031 C 348.726562 424.152344 350.539062 423.550781 352.339844 422.90625 C 354.140625 422.265625 355.921875 421.578125 357.6875 420.847656 C 359.453125 420.113281 361.199219 419.339844 362.925781 418.523438 C 364.652344 417.707031 366.359375 416.847656 368.042969 415.949219 C 369.730469 415.046875 371.390625 414.105469 373.03125 413.125 C 374.667969 412.140625 376.28125 411.121094 377.871094 410.058594 C 379.460938 408.996094 381.019531 407.894531 382.554688 406.757812 C 384.089844 405.621094 385.597656 404.445312 387.074219 403.234375 C 388.550781 402.019531 389.996094 400.773438 391.414062 399.488281 C 392.828125 398.207031 394.210938 396.890625 395.5625 395.539062 C 396.914062 394.1875 398.230469 392.804688 399.515625 391.390625 C 400.796875 389.972656 402.046875 388.527344 403.257812 387.050781 C 404.46875 385.574219 405.644531 384.066406 406.78125 382.53125 C 407.921875 380.996094 409.019531 379.4375 410.082031 377.847656 C 411.144531 376.257812 412.167969 374.644531 413.148438 373.007812 C 414.128906 371.367188 415.070312 369.707031 415.972656 368.019531 C 416.875 366.335938 417.734375 364.628906 418.550781 362.902344 C 419.367188 361.175781 420.140625 359.429688 420.871094 357.664062 C 421.601562 355.898438 422.289062 354.117188 422.933594 352.316406 C 423.578125 350.519531 424.175781 348.703125 424.730469 346.875 C 425.285156 345.046875 425.796875 343.207031 426.261719 341.351562 C 426.722656 339.5 427.144531 337.636719 427.515625 335.761719 C 427.886719 333.886719 428.214844 332.007812 428.496094 330.117188 C 428.777344 328.226562 429.007812 326.332031 429.195312 324.429688 C 429.382812 322.527344 429.523438 320.621094 429.617188 318.714844 C 429.710938 316.804688 429.757812 314.894531 429.757812 312.984375 C 429.757812 311.074219 429.707031 309.167969 429.613281 307.257812 C 429.515625 305.351562 429.375 303.449219 429.1875 301.546875 C 428.996094 299.648438 428.761719 297.753906 428.480469 295.863281 C 428.199219 293.972656 427.871094 292.09375 427.496094 290.21875 C 427.121094 288.347656 426.703125 286.484375 426.238281 284.632812 C 425.769531 282.78125 425.261719 280.941406 424.707031 279.113281 C 424.148438 277.285156 423.550781 275.472656 422.90625 273.675781 C 422.261719 271.875 421.574219 270.097656 420.839844 268.332031 C 420.109375 266.566406 419.335938 264.820312 418.515625 263.097656 C 417.699219 261.371094 416.839844 259.664062 415.941406 257.980469 C 415.039062 256.296875 414.097656 254.636719 413.113281 252.996094 C 412.132812 251.359375 411.109375 249.746094 410.050781 248.160156 C 408.988281 246.570312 407.886719 245.011719 406.75 243.476562 C 405.613281 241.941406 404.4375 240.4375 403.226562 238.960938 C 402.015625 237.484375 400.765625 236.039062 399.484375 234.625 C 398.203125 233.207031 396.886719 231.824219 395.535156 230.476562 C 394.183594 229.125 392.800781 227.808594 391.386719 226.523438 C 389.972656 225.242188 388.527344 223.996094 387.050781 222.78125 C 385.574219 221.570312 384.070312 220.394531 382.535156 219.257812 C 381 218.121094 379.441406 217.019531 377.851562 215.957031 C 376.265625 214.898438 374.652344 213.875 373.015625 212.890625 C 371.375 211.910156 369.714844 210.96875 368.03125 210.066406 C 366.347656 209.164062 364.644531 208.304688 362.917969 207.488281 C 361.191406 206.671875 359.445312 205.894531 357.679688 205.164062 C 355.917969 204.433594 354.136719 203.742188 352.339844 203.097656 C 350.539062 202.453125 348.726562 201.855469 346.902344 201.296875 C 345.074219 200.742188 343.234375 200.230469 341.382812 199.765625 C 339.53125 199.300781 337.667969 198.878906 335.792969 198.507812 C 333.921875 198.132812 332.039062 197.804688 330.152344 197.523438 C 328.261719 197.238281 326.367188 197.003906 324.46875 196.816406 C 322.566406 196.625 320.664062 196.484375 318.753906 196.386719 C 316.847656 196.292969 314.9375 196.242188 313.027344 196.238281 Z M 313.027344 372.796875 C 311.070312 372.796875 309.117188 372.703125 307.167969 372.507812 C 305.214844 372.316406 303.28125 372.03125 301.359375 371.648438 C 299.4375 371.265625 297.539062 370.789062 295.667969 370.222656 C 293.792969 369.652344 291.949219 368.996094 290.140625 368.246094 C 288.328125 367.496094 286.5625 366.660156 284.832031 365.734375 C 283.105469 364.8125 281.425781 363.804688 279.800781 362.71875 C 278.171875 361.628906 276.597656 360.464844 275.085938 359.222656 C 273.570312 357.976562 272.121094 356.664062 270.734375 355.277344 C 269.351562 353.894531 268.035156 352.445312 266.792969 350.929688 C 265.550781 349.414062 264.386719 347.84375 263.296875 346.214844 C 262.207031 344.585938 261.203125 342.910156 260.277344 341.179688 C 259.355469 339.453125 258.519531 337.683594 257.769531 335.875 C 257.019531 334.066406 256.359375 332.222656 255.792969 330.347656 C 255.222656 328.472656 254.746094 326.574219 254.367188 324.65625 C 253.984375 322.734375 253.695312 320.796875 253.503906 318.847656 C 253.3125 316.898438 253.214844 314.945312 253.214844 312.984375 C 253.214844 311.027344 253.3125 309.074219 253.503906 307.125 C 253.695312 305.171875 253.984375 303.238281 254.367188 301.316406 C 254.746094 299.394531 255.222656 297.496094 255.792969 295.625 C 256.359375 293.75 257.019531 291.90625 257.769531 290.097656 C 258.519531 288.285156 259.355469 286.519531 260.277344 284.789062 C 261.203125 283.0625 262.207031 281.382812 263.296875 279.753906 C 264.386719 278.128906 265.550781 276.554688 266.792969 275.042969 C 268.035156 273.527344 269.351562 272.078125 270.734375 270.691406 C 272.121094 269.308594 273.570312 267.992188 275.085938 266.75 C 276.597656 265.507812 278.171875 264.34375 279.800781 263.253906 C 281.425781 262.164062 283.105469 261.160156 284.832031 260.234375 C 286.5625 259.3125 288.328125 258.476562 290.140625 257.726562 C 291.949219 256.976562 293.792969 256.316406 295.667969 255.75 C 297.539062 255.179688 299.4375 254.703125 301.359375 254.324219 C 303.28125 253.941406 305.214844 253.652344 307.167969 253.460938 C 309.117188 253.269531 311.070312 253.171875 313.027344 253.171875 C 314.988281 253.171875 316.941406 253.269531 318.890625 253.460938 C 320.839844 253.652344 322.777344 253.941406 324.699219 254.324219 C 326.617188 254.703125 328.515625 255.179688 330.390625 255.75 C 332.265625 256.316406 334.109375 256.976562 335.917969 257.726562 C 337.726562 258.476562 339.496094 259.3125 341.222656 260.234375 C 342.953125 261.160156 344.628906 262.164062 346.257812 263.253906 C 347.886719 264.34375 349.457031 265.507812 350.972656 266.75 C 352.488281 267.992188 353.9375 269.308594 355.320312 270.691406 C 356.707031 272.078125 358.019531 273.527344 359.265625 275.042969 C 360.507812 276.554688 361.671875 278.128906 362.761719 279.753906 C 363.847656 281.382812 364.855469 283.0625 365.777344 284.789062 C 366.703125 286.519531 367.539062 288.285156 368.289062 290.097656 C 369.039062 291.90625 369.695312 293.75 370.265625 295.625 C 370.832031 297.496094 371.308594 299.394531 371.691406 301.316406 C 372.074219 303.238281 372.359375 305.171875 372.554688 307.125 C 372.746094 309.074219 372.839844 311.027344 372.839844 312.984375 C 372.839844 314.945312 372.742188 316.898438 372.546875 318.847656 C 372.351562 320.796875 372.066406 322.730469 371.679688 324.648438 C 371.296875 326.570312 370.820312 328.46875 370.25 330.339844 C 369.683594 332.214844 369.023438 334.054688 368.269531 335.863281 C 367.519531 337.675781 366.683594 339.441406 365.761719 341.167969 C 364.835938 342.894531 363.832031 344.574219 362.742188 346.199219 C 361.652344 347.828125 360.488281 349.398438 359.246094 350.914062 C 358.003906 352.425781 356.6875 353.875 355.304688 355.261719 C 353.917969 356.644531 352.46875 357.960938 350.957031 359.203125 C 349.441406 360.445312 347.871094 361.609375 346.242188 362.699219 C 344.617188 363.789062 342.9375 364.792969 341.210938 365.71875 C 339.484375 366.640625 337.71875 367.476562 335.910156 368.226562 C 334.097656 368.980469 332.257812 369.640625 330.382812 370.207031 C 328.511719 370.777344 326.613281 371.253906 324.691406 371.636719 C 322.773438 372.023438 320.839844 372.308594 318.890625 372.503906 C 316.941406 372.699219 314.988281 372.796875 313.027344 372.796875 Z M 313.027344 259.296875 C 311.269531 259.296875 309.515625 259.386719 307.765625 259.558594 C 306.015625 259.730469 304.28125 259.988281 302.554688 260.332031 C 300.832031 260.671875 299.125 261.101562 297.445312 261.609375 C 295.761719 262.121094 294.109375 262.710938 292.484375 263.386719 C 290.859375 264.058594 289.273438 264.808594 287.722656 265.636719 C 286.171875 266.464844 284.664062 267.371094 283.203125 268.347656 C 281.738281 269.324219 280.328125 270.371094 278.96875 271.484375 C 277.609375 272.601562 276.308594 273.78125 275.066406 275.023438 C 273.824219 276.265625 272.644531 277.566406 271.527344 278.925781 C 270.414062 280.285156 269.367188 281.695312 268.390625 283.160156 C 267.414062 284.621094 266.511719 286.128906 265.679688 287.679688 C 264.851562 289.226562 264.101562 290.816406 263.429688 292.441406 C 262.753906 294.066406 262.164062 295.71875 261.652344 297.402344 C 261.144531 299.082031 260.714844 300.789062 260.375 302.511719 C 260.03125 304.238281 259.773438 305.972656 259.601562 307.722656 C 259.429688 309.472656 259.339844 311.226562 259.339844 312.984375 C 259.339844 314.742188 259.429688 316.496094 259.601562 318.246094 C 259.773438 319.996094 260.03125 321.734375 260.375 323.460938 C 260.714844 325.183594 261.144531 326.886719 261.652344 328.570312 C 262.164062 330.253906 262.753906 331.90625 263.429688 333.53125 C 264.101562 335.15625 264.851562 336.742188 265.679688 338.292969 C 266.511719 339.84375 267.414062 341.351562 268.390625 342.8125 C 269.367188 344.273438 270.414062 345.683594 271.527344 347.042969 C 272.644531 348.402344 273.824219 349.703125 275.066406 350.949219 C 276.308594 352.191406 277.609375 353.371094 278.96875 354.484375 C 280.328125 355.601562 281.738281 356.648438 283.203125 357.625 C 284.664062 358.601562 286.171875 359.503906 287.722656 360.332031 C 289.273438 361.160156 290.859375 361.914062 292.484375 362.585938 C 294.109375 363.257812 295.761719 363.851562 297.445312 364.359375 C 299.125 364.871094 300.832031 365.296875 302.554688 365.640625 C 304.28125 365.984375 306.015625 366.242188 307.765625 366.414062 C 309.515625 366.585938 311.269531 366.671875 313.027344 366.671875 C 314.785156 366.671875 316.542969 366.585938 318.289062 366.414062 C 320.039062 366.242188 321.777344 365.984375 323.503906 365.640625 C 325.226562 365.296875 326.929688 364.871094 328.613281 364.359375 C 330.296875 363.851562 331.949219 363.257812 333.574219 362.585938 C 335.199219 361.914062 336.785156 361.160156 338.335938 360.332031 C 339.886719 359.503906 341.394531 358.601562 342.855469 357.625 C 344.316406 356.648438 345.726562 355.601562 347.085938 354.484375 C 348.445312 353.371094 349.746094 352.191406 350.992188 350.949219 C 352.234375 349.703125 353.414062 348.402344 354.527344 347.042969 C 355.644531 345.683594 356.691406 344.273438 357.667969 342.8125 C 358.644531 341.351562 359.546875 339.84375 360.375 338.292969 C 361.207031 336.742188 361.957031 335.15625 362.628906 333.53125 C 363.300781 331.90625 363.894531 330.253906 364.402344 328.570312 C 364.914062 326.886719 365.339844 325.183594 365.683594 323.460938 C 366.027344 321.734375 366.285156 319.996094 366.457031 318.246094 C 366.628906 316.496094 366.714844 314.742188 366.714844 312.984375 C 366.714844 311.226562 366.625 309.472656 366.453125 307.726562 C 366.28125 305.976562 366.019531 304.238281 365.675781 302.515625 C 365.332031 300.792969 364.90625 299.089844 364.394531 297.40625 C 363.882812 295.722656 363.289062 294.070312 362.617188 292.449219 C 361.941406 290.824219 361.191406 289.238281 360.363281 287.6875 C 359.535156 286.136719 358.628906 284.632812 357.652344 283.167969 C 356.675781 281.707031 355.628906 280.296875 354.515625 278.9375 C 353.398438 277.582031 352.222656 276.28125 350.976562 275.035156 C 349.734375 273.792969 348.433594 272.613281 347.074219 271.5 C 345.714844 270.382812 344.304688 269.335938 342.84375 268.359375 C 341.382812 267.382812 339.878906 266.480469 338.328125 265.652344 C 336.777344 264.824219 335.191406 264.070312 333.566406 263.398438 C 331.941406 262.722656 330.289062 262.132812 328.609375 261.621094 C 326.925781 261.109375 325.222656 260.683594 323.5 260.335938 C 321.777344 259.992188 320.039062 259.734375 318.289062 259.5625 C 316.539062 259.386719 314.785156 259.300781 313.027344 259.296875 Z M 313.027344 259.296875"/></g></g></g></g><g clip-path="url(#87b825f690)"><g clip-path="url(#87917fbd9d)"><path fill="#ffc149" fill-opacity="1" fill-rule="nonzero" d="M -66.394531 1038.394531 L 424.167969 1038.394531 L 424.167969 1528.957031 L -66.394531 1528.957031 Z M -66.394531 1038.394531"/></g></g><g mask="url(#a828c35d14)"><g><g clip-path="url(#88ead9e261)" transform="matrix(1, 0, 0, 1, 404, 661)"><g clip-path="url(#97767f7f83)"><path fill="#cf9d3d" fill-opacity="1" fill-rule="nonzero" d="M 1 0.964844 L 91 0.964844 L 91 90.964844 L 1 90.964844 Z M 1 0.964844"/></g></g></g></g><g mask="url(#4e3c36e3e1)"><g><g clip-path="url(#5ada38f189)" transform="matrix(1, 0, 0, 1, 424, 1025)"><g clip-path="url(#dcb953bba5)"><g clip-path="url(#e51a4532fc)"><path fill="#cf9d3d" fill-opacity="1" fill-rule="nonzero" d="M 0.167969 0.179688 L 96.714844 0.179688 L 96.714844 96.726562 L 0.167969 96.726562 Z M 0.167969 0.179688"/></g></g></g></g></g><g clip-path="url(#31db99ff86)"><g clip-path="url(#ed042bcec2)"><path fill="#fdc672" fill-opacity="1" fill-rule="nonzero" d="M 424.167969 74.070312 L 565.832031 74.070312 L 565.832031 215.734375 L 424.167969 215.734375 Z M 424.167969 74.070312"/></g></g></svg>